<svg width="30" height="32" viewBox="0 0 30 32" fill="none" xmlns="http://www.w3.org/2000/svg">
<g clip-path="url(#clip0_123_1853)">
<path d="M13.2332 15.4672H19.2254C19.329 15.4672 19.4284 15.4255 19.5017 15.3512C19.575 15.277 19.6162 15.1763 19.6162 15.0713C19.6162 14.9663 19.575 14.8657 19.5017 14.7914C19.4284 14.7172 19.329 14.6755 19.2254 14.6755H13.2332C13.1296 14.6755 13.0302 14.7172 12.9569 14.7914C12.8836 14.8657 12.8424 14.9663 12.8424 15.0713C12.8424 15.1763 12.8836 15.277 12.9569 15.3512C13.0302 15.4255 13.1296 15.4672 13.2332 15.4672ZM13.2332 18.6341H18.4438C18.5474 18.6341 18.6468 18.5924 18.7201 18.5182C18.7934 18.4439 18.8346 18.3432 18.8346 18.2382C18.8346 18.1332 18.7934 18.0326 18.7201 17.9583C18.6468 17.8841 18.5474 17.8424 18.4438 17.8424H13.2332C13.1296 17.8424 13.0302 17.8841 12.9569 17.9583C12.8836 18.0326 12.8424 18.1332 12.8424 18.2382C12.8424 18.3432 12.8836 18.4439 12.9569 18.5182C13.0302 18.5924 13.1296 18.6341 13.2332 18.6341ZM13.2332 12.3003H19.2254C19.329 12.3003 19.4284 12.2586 19.5017 12.1843C19.575 12.1101 19.6162 12.0094 19.6162 11.9044C19.6162 11.7994 19.575 11.6987 19.5017 11.6245C19.4284 11.5503 19.329 11.5086 19.2254 11.5086H13.2332C13.1296 11.5086 13.0302 11.5503 12.9569 11.6245C12.8836 11.6987 12.8424 11.7994 12.8424 11.9044C12.8424 12.0094 12.8836 12.1101 12.9569 12.1843C13.0302 12.2586 13.1296 12.3003 13.2332 12.3003ZM14.6656 2.35885C14.7429 2.35885 14.8185 2.33564 14.8827 2.29214C14.947 2.24864 14.9971 2.18682 15.0267 2.11448C15.0562 2.04215 15.064 1.96255 15.0489 1.88576C15.0338 1.80897 14.9966 1.73844 14.9419 1.68307C14.8873 1.62771 14.8177 1.59001 14.7418 1.57473C14.666 1.55946 14.5875 1.5673 14.5161 1.59726C14.4446 1.62722 14.3836 1.67796 14.3407 1.74306C14.2977 1.80816 14.2748 1.8847 14.2748 1.96299C14.2748 2.06798 14.316 2.16867 14.3893 2.24291C14.4626 2.31715 14.562 2.35885 14.6656 2.35885ZM13.2332 9.13339H19.2254C19.329 9.13339 19.4284 9.09168 19.5017 9.01744C19.575 8.9432 19.6162 8.84251 19.6162 8.73752C19.6162 8.63254 19.575 8.53185 19.5017 8.45761C19.4284 8.38337 19.329 8.34166 19.2254 8.34166H13.2332C13.1296 8.34166 13.0302 8.38337 12.9569 8.45761C12.8836 8.53185 12.8424 8.63254 12.8424 8.73752C12.8424 8.84251 12.8836 8.9432 12.9569 9.01744C13.0302 9.09168 13.1296 9.13339 13.2332 9.13339ZM10.1069 22.5927C10.3388 22.5927 10.5654 22.5231 10.7582 22.3926C10.951 22.2621 11.1013 22.0766 11.19 21.8596C11.2788 21.6426 11.302 21.4038 11.2567 21.1735C11.2115 20.9431 11.0998 20.7315 10.9359 20.5654C10.7719 20.3993 10.563 20.2862 10.3356 20.2404C10.1082 20.1945 9.87245 20.2181 9.65823 20.3079C9.44401 20.3978 9.26091 20.5501 9.13208 20.7453C9.00326 20.9406 8.9345 21.1703 8.9345 21.4051C8.93491 21.72 9.05857 22.0218 9.27834 22.2444C9.49811 22.4671 9.79607 22.5923 10.1069 22.5927ZM10.1069 21.0093C10.1842 21.0093 10.2597 21.0325 10.324 21.076C10.3883 21.1195 10.4383 21.1813 10.4679 21.2536C10.4975 21.326 10.5052 21.4056 10.4902 21.4824C10.4751 21.5592 10.4379 21.6297 10.3832 21.6851C10.3286 21.7404 10.2589 21.7781 10.1831 21.7934C10.1073 21.8087 10.0287 21.8008 9.95733 21.7709C9.88592 21.7409 9.82489 21.6902 9.78195 21.6251C9.73901 21.56 9.71609 21.4834 9.71609 21.4051C9.71622 21.3002 9.75744 21.1996 9.8307 21.1254C9.90396 21.0512 10.0033 21.0094 10.1069 21.0093ZM10.1069 9.92511C10.3388 9.92511 10.5654 9.85546 10.7582 9.72497C10.951 9.59447 11.1013 9.409 11.19 9.192C11.2788 8.97499 11.302 8.73621 11.2567 8.50584C11.2115 8.27547 11.0998 8.06386 10.9359 7.89777C10.7719 7.73169 10.563 7.61858 10.3356 7.57275C10.1082 7.52693 9.87245 7.55045 9.65823 7.64034C9.44401 7.73022 9.26091 7.88244 9.13208 8.07774C9.00326 8.27303 8.9345 8.50264 8.9345 8.73752C8.93491 9.05236 9.05857 9.35419 9.27834 9.57681C9.49811 9.79944 9.79607 9.92469 10.1069 9.92511ZM10.1069 8.34166C10.1842 8.34166 10.2597 8.36488 10.324 8.40838C10.3883 8.45187 10.4383 8.5137 10.4679 8.58603C10.4975 8.65837 10.5052 8.73796 10.4902 8.81475C10.4751 8.89154 10.4379 8.96208 10.3832 9.01744C10.3286 9.0728 10.2589 9.11051 10.1831 9.12578C10.1073 9.14106 10.0287 9.13322 9.95733 9.10325C9.88592 9.07329 9.82489 9.02255 9.78195 8.95745C9.73901 8.89236 9.71609 8.81582 9.71609 8.73752C9.71622 8.63258 9.75744 8.53197 9.8307 8.45776C9.90396 8.38355 10.0033 8.3418 10.1069 8.34166ZM27.952 7.09337C27.887 6.86792 27.7574 6.66706 27.5797 6.5162C27.402 6.36534 27.1841 6.27125 26.9536 6.24582C26.7231 6.2204 26.4903 6.26479 26.2847 6.37337C26.0791 6.48196 25.9099 6.64986 25.7985 6.85586L25.3728 7.6423L24.3307 9.56725V5.12198C24.3301 4.59729 24.1242 4.09425 23.758 3.72319C23.3918 3.35214 22.8952 3.14336 22.3773 3.14266H18.7246C18.592 2.98045 18.4257 2.84988 18.2376 2.76029C18.0494 2.67069 17.8441 2.62427 17.6362 2.62435H17.162C17.1696 2.45425 17.1605 2.28381 17.1349 2.11553C17.0317 1.49068 16.7012 0.927657 16.2084 0.537485C15.7157 0.147313 15.0965 -0.041696 14.473 0.0077248C13.8495 0.0571456 13.2669 0.34141 12.84 0.804468C12.4132 1.26753 12.1731 1.87577 12.1671 2.50928C12.1671 2.54834 12.1671 2.58793 12.1697 2.62698H11.6956C11.4879 2.62659 11.2826 2.6726 11.0945 2.76173C10.9064 2.85087 10.7399 2.98093 10.6071 3.14266H6.95396C6.43591 3.14322 5.93923 3.35194 5.57291 3.72301C5.20659 4.09408 5.00055 4.5972 5 5.12198V25.0207C5.00055 25.5455 5.20659 26.0486 5.57291 26.4197C5.93923 26.7907 6.43591 26.9994 6.95396 27H22.3773C22.8953 26.9994 23.392 26.7907 23.7583 26.4197C24.1246 26.0486 24.3307 25.5455 24.3312 25.0207V14.5103L27.8546 7.99858C27.9293 7.86179 27.9764 7.71131 27.9931 7.5559C28.0099 7.40049 27.9959 7.24326 27.952 7.09337ZM22.3773 3.93439C22.6881 3.93467 22.9861 4.05988 23.2059 4.28253C23.4257 4.50519 23.5494 4.80709 23.5496 5.12198V11.0124L21.9604 13.9502V5.9137C21.9604 5.80871 21.9192 5.70802 21.8459 5.63379C21.7727 5.55955 21.6733 5.51784 21.5696 5.51784H19.0529V4.05737C19.0529 4.0162 19.0529 3.97503 19.0472 3.93439H22.3773ZM11.062 4.05737C11.0623 3.88728 11.1291 3.72425 11.2479 3.60403C11.3667 3.4838 11.5277 3.41621 11.6956 3.41607H12.6199C12.6792 3.41596 12.7377 3.40222 12.7909 3.37588C12.8442 3.34954 12.8908 3.31129 12.9274 3.26402C12.9639 3.21674 12.9893 3.16168 13.0018 3.10299C13.0143 3.0443 13.0134 2.98351 12.9993 2.9252C12.9246 2.62063 12.9328 2.30127 13.0229 2.00101C13.113 1.70076 13.2816 1.43081 13.5109 1.21982C13.6879 1.05573 13.8971 0.931326 14.1248 0.854743C14.3525 0.77816 14.5936 0.751124 14.8323 0.775402C15.0774 0.800291 15.3144 0.878231 15.5272 1.00394C15.7399 1.12966 15.9236 1.30021 16.0656 1.50406C16.2076 1.70791 16.3048 1.94029 16.3505 2.18548C16.3962 2.43066 16.3893 2.68293 16.3304 2.9252C16.3163 2.98351 16.3154 3.0443 16.3278 3.10299C16.3403 3.16168 16.3658 3.21674 16.4023 3.26402C16.4388 3.31129 16.4855 3.34954 16.5387 3.37588C16.592 3.40222 16.6504 3.41596 16.7097 3.41607H17.6341C17.7175 3.41565 17.8002 3.43193 17.8775 3.46396C17.9547 3.49598 18.0249 3.54314 18.0841 3.60272C18.1433 3.66229 18.1903 3.73312 18.2225 3.81114C18.2546 3.88916 18.2712 3.97284 18.2713 4.05737V5.57959C18.271 5.74968 18.2042 5.91272 18.0854 6.03294C17.9666 6.15316 17.8056 6.22075 17.6377 6.22089H11.6977C11.5298 6.22075 11.3688 6.15316 11.25 6.03294C11.1312 5.91272 11.0643 5.74968 11.0641 5.57959L11.062 4.05737ZM11.6956 7.01315H17.6356C17.8814 7.01305 18.123 6.94812 18.3365 6.82475C18.55 6.70139 18.7281 6.52383 18.8533 6.30957H21.1788V15.3949L19.3655 18.7513C19.3567 18.7683 19.3491 18.786 19.3426 18.8041C19.3412 18.8073 19.34 18.8107 19.339 18.8141C19.333 18.8313 19.3281 18.849 19.3244 18.8669L18.9383 21.0093H13.2332C13.1296 21.0093 13.0302 21.051 12.9569 21.1252C12.8836 21.1995 12.8424 21.3001 12.8424 21.4051C12.8424 21.5101 12.8836 21.6108 12.9569 21.6851C13.0302 21.7593 13.1296 21.801 13.2332 21.801H19.2254H19.2467H19.2645C19.363 21.8011 19.458 21.7634 19.5302 21.6954L21.1788 20.1463V23.8331H8.1524V6.30957H10.4784C10.6036 6.52366 10.7817 6.70106 10.9951 6.82432C11.2085 6.94759 11.4499 7.01301 11.6956 7.01315ZM19.9934 19.553L20.4134 19.7858L19.8585 20.3073L19.9934 19.553ZM23.5496 25.0207C23.5494 25.3356 23.4257 25.6375 23.2059 25.8601C22.9861 26.0828 22.6881 26.208 22.3773 26.2083H6.95396C6.64316 26.2079 6.3452 26.0826 6.12542 25.86C5.90565 25.6373 5.782 25.3355 5.78159 25.0207V5.12198C5.782 4.80714 5.90565 4.50531 6.12542 4.28269C6.3452 4.06006 6.64316 3.93481 6.95396 3.93439H10.2887C10.2851 3.97503 10.283 4.0162 10.283 4.05737V5.51784H7.7616C7.65796 5.51784 7.55856 5.55955 7.48527 5.63379C7.41198 5.70802 7.37081 5.80871 7.37081 5.9137V24.229C7.37081 24.3339 7.41198 24.4346 7.48527 24.5089C7.55856 24.5831 7.65796 24.6248 7.7616 24.6248H21.5696C21.6733 24.6248 21.7727 24.5831 21.8459 24.5089C21.9192 24.4346 21.9604 24.3339 21.9604 24.229V18.8927L23.5496 15.9549V25.0207ZM23.597 14.22L20.9219 19.1646L20.2362 18.7845L21.9099 15.6905C21.9121 15.6871 21.914 15.6836 21.9156 15.6799L24.2812 11.3069L24.2864 11.298L25.8704 8.36805L26.5561 8.75072L23.597 14.22ZM27.1694 7.61644L26.9313 8.05664L26.2461 7.67608L26.4842 7.23641C26.5079 7.18906 26.5407 7.14701 26.5807 7.11276C26.6207 7.07851 26.6671 7.05276 26.7172 7.03705C26.7672 7.02133 26.8198 7.01596 26.872 7.02127C26.9241 7.02657 26.9746 7.04244 27.0206 7.06792C27.0665 7.09341 27.107 7.12799 27.1395 7.16962C27.172 7.21125 27.1959 7.25907 27.2097 7.31024C27.2236 7.36141 27.2272 7.41489 27.2203 7.46749C27.2133 7.52009 27.1961 7.57075 27.1694 7.61644ZM10.1069 19.4258C10.3388 19.4258 10.5654 19.3562 10.7582 19.2257C10.951 19.0952 11.1013 18.9097 11.19 18.6927C11.2788 18.4757 11.302 18.2369 11.2567 18.0065C11.2115 17.7762 11.0998 17.5646 10.9359 17.3985C10.7719 17.2324 10.563 17.1193 10.3356 17.0735C10.1082 17.0276 9.87245 17.0512 9.65823 17.141C9.44401 17.2309 9.26091 17.3831 9.13208 17.5784C9.00326 17.7737 8.9345 18.0034 8.9345 18.2382C8.93491 18.5531 9.05857 18.8549 9.27834 19.0775C9.49811 19.3001 9.79607 19.4254 10.1069 19.4258ZM10.1069 17.8424C10.1842 17.8424 10.2597 17.8656 10.324 17.9091C10.3883 17.9526 10.4383 18.0144 10.4679 18.0867C10.4975 18.1591 10.5052 18.2387 10.4902 18.3155C10.4751 18.3923 10.4379 18.4628 10.3832 18.5182C10.3286 18.5735 10.2589 18.6112 10.1831 18.6265C10.1073 18.6418 10.0287 18.6339 9.95733 18.604C9.88592 18.574 9.82489 18.5233 9.78195 18.4582C9.73901 18.3931 9.71609 18.3165 9.71609 18.2382C9.71622 18.1333 9.75744 18.0327 9.8307 17.9585C9.90396 17.8843 10.0033 17.8425 10.1069 17.8424ZM10.1069 16.2589C10.3388 16.2589 10.5654 16.1893 10.7582 16.0588C10.951 15.9283 11.1013 15.7428 11.19 15.5258C11.2788 15.3088 11.302 15.07 11.2567 14.8396C11.2115 14.6093 11.0998 14.3977 10.9359 14.2316C10.7719 14.0655 10.563 13.9524 10.3356 13.9066C10.1082 13.8607 9.87245 13.8843 9.65823 13.9741C9.44401 14.064 9.26091 14.2162 9.13208 14.4115C9.00326 14.6068 8.9345 14.8364 8.9345 15.0713C8.93491 15.3862 9.05857 15.688 9.27834 15.9106C9.49811 16.1332 9.79607 16.2585 10.1069 16.2589ZM10.1069 14.6755C10.1842 14.6755 10.2597 14.6987 10.324 14.7422C10.3883 14.7857 10.4383 14.8475 10.4679 14.9198C10.4975 14.9922 10.5052 15.0718 10.4902 15.1486C10.4751 15.2253 10.4379 15.2959 10.3832 15.3512C10.3286 15.4066 10.2589 15.4443 10.1831 15.4596C10.1073 15.4749 10.0287 15.467 9.95733 15.4371C9.88592 15.4071 9.82489 15.3564 9.78195 15.2913C9.73901 15.2262 9.71609 15.1496 9.71609 15.0713C9.71622 14.9664 9.75744 14.8658 9.8307 14.7916C9.90396 14.7174 10.0033 14.6756 10.1069 14.6755ZM10.1069 13.092C10.3388 13.092 10.5654 13.0224 10.7582 12.8919C10.951 12.7614 11.1013 12.5759 11.19 12.3589C11.2788 12.1419 11.302 11.9031 11.2567 11.6727C11.2115 11.4424 11.0998 11.2308 10.9359 11.0647C10.7719 10.8986 10.563 10.7855 10.3356 10.7397C10.1082 10.6938 9.87245 10.7174 9.65823 10.8072C9.44401 10.8971 9.26091 11.0493 9.13208 11.2446C9.00326 11.4399 8.9345 11.6695 8.9345 11.9044C8.93491 12.2193 9.05857 12.5211 9.27834 12.7437C9.49811 12.9663 9.79607 13.0916 10.1069 13.092ZM10.1069 11.5086C10.1842 11.5086 10.2597 11.5318 10.324 11.5753C10.3883 11.6188 10.4383 11.6806 10.4679 11.7529C10.4975 11.8253 10.5052 11.9049 10.4902 11.9817C10.4751 12.0584 10.4379 12.129 10.3832 12.1843C10.3286 12.2397 10.2589 12.2774 10.1831 12.2927C10.1073 12.308 10.0287 12.3001 9.95733 12.2702C9.88592 12.2402 9.82489 12.1895 9.78195 12.1244C9.73901 12.0593 9.71609 11.9827 9.71609 11.9044C9.71622 11.7995 9.75744 11.6989 9.8307 11.6247C9.90396 11.5505 10.0033 11.5087 10.1069 11.5086Z" fill="black"/>
</g>
<defs>
<clipPath id="clip0_123_1853">
<rect width="30" height="31" fill="white" transform="translate(0 0.5)"/>
</clipPath>
</defs>
</svg>
