<svg width="30" height="30" viewBox="0 0 30 30" fill="none" xmlns="http://www.w3.org/2000/svg">
<path d="M23.4 3H6.6C4.61265 3.0022 3.0022 4.61265 3 6.6V17.482V23.4C3.0022 25.3874 4.61265 26.9978 6.6 27H23.4C23.6188 26.9997 23.8345 26.9736 24.0475 26.9341C24.1268 26.9196 24.2024 26.8977 24.2799 26.8781C24.4071 26.8455 24.532 26.8077 24.6549 26.7614C24.7442 26.7279 24.8314 26.6928 24.9173 26.6526C25.0181 26.6052 25.1144 26.5501 25.2106 26.4933C25.3009 26.4403 25.392 26.3906 25.477 26.3301C25.484 26.3251 25.4919 26.3219 25.4988 26.3168C25.5078 26.3104 25.5155 26.3024 25.524 26.2954C25.5404 26.2822 25.561 26.2756 25.576 26.2606C25.584 26.2526 25.5865 26.2419 25.5939 26.2337C26.4426 25.5751 26.9988 24.5572 27 23.4V19.8844V6.6C26.9978 4.61265 25.3874 3.0022 23.4 3ZM24.0899 25.6865C23.866 25.7558 23.6346 25.7999 23.4 25.8H6.6C5.2752 25.7983 4.20168 24.7248 4.2 23.4V17.7305L8.71523 13.2152C9.53606 12.3973 10.8639 12.3973 11.6848 13.2152L15.7706 17.3007C15.7729 17.303 15.7734 17.3062 15.7758 17.3085L24.1386 25.6713C24.1225 25.6766 24.1062 25.6815 24.0899 25.6865ZM25.8 23.4C25.7992 24.0196 25.5576 24.5786 25.1719 25.0044L17.0498 16.883L18.3164 15.6164C19.1459 14.8219 20.4541 14.8219 21.2836 15.6164L25.8 20.1328V23.4ZM25.8 18.4359L22.132 14.768C20.8436 13.4813 18.7564 13.4813 17.468 14.768L16.2013 16.0346L12.5332 12.3668C11.2438 11.0801 9.15615 11.0801 7.8668 12.3668L4.2 16.0336V6.6C4.20168 5.2752 5.2752 4.20168 6.6 4.2H23.4C24.7248 4.20168 25.7983 5.2752 25.8 6.6V18.4359ZM16.8 7.8C15.8059 7.8 15 8.60588 15 9.6C15 10.5941 15.8059 11.4 16.8 11.4C17.7937 11.3989 18.5989 10.5937 18.6 9.6C18.6 8.60588 17.7941 7.8 16.8 7.8ZM16.8 10.2C16.4687 10.2 16.2 9.93135 16.2 9.6C16.2 9.26865 16.4687 9 16.8 9C17.1311 9.00066 17.3993 9.26887 17.4 9.6C17.4 9.93135 17.1313 10.2 16.8 10.2Z" fill="black"/>
</svg>
