<svg width="30" height="30" viewBox="0 0 30 30" fill="none" xmlns="http://www.w3.org/2000/svg">
<path d="M15 30C6.7224 30 0 23.2776 0 15C0 6.7224 6.7224 -1.90735e-06 15 -1.90735e-06C23.2776 -1.90735e-06 30 6.7224 30 15C30 23.2776 23.2776 30 15 30ZM15 28.8372C16.8177 28.8391 18.6178 28.4825 20.2975 27.7878C21.9772 27.0931 23.5033 26.0739 24.7886 24.7886C26.0739 23.5033 27.0931 21.9772 27.7878 20.2975C28.4825 18.6178 28.8391 16.8177 28.8372 15C28.8372 7.3464 22.6536 1.1244 15 1.1244C7.3464 1.1244 1.1628 7.3464 1.1628 15C1.16091 16.8177 1.51752 18.6178 2.21224 20.2975C2.90695 21.9772 3.92612 23.5033 5.2114 24.7886C6.49668 26.0739 8.02283 27.0931 9.70249 27.7878C11.3822 28.4825 13.1823 28.8391 15 28.8372ZM7.2 19.2V9.6H20.4V11.55L24 9.8244V18.9744L20.4 17.25V19.2H7.2ZM8.4 18H19.2V10.8H8.4V18ZM22.8 17.0628V11.7372L20.4 12.9V15.9372L22.8 17.0628Z" fill="black"/>
</svg>
