<svg width="40" height="40" viewBox="0 0 40 40" fill="none" xmlns="http://www.w3.org/2000/svg">
<path d="M13.0416 21.6667L21.2082 29.8333C21.5416 30.1667 21.7016 30.5556 21.6882 31C21.6749 31.4444 21.501 31.8333 21.1666 32.1667C20.8332 32.4722 20.4443 32.6322 19.9999 32.6467C19.5555 32.6611 19.1666 32.5011 18.8332 32.1667L7.83323 21.1667C7.66657 21 7.54823 20.8194 7.47823 20.625C7.40823 20.4306 7.37435 20.2222 7.37657 20C7.37879 19.7778 7.41379 19.5694 7.48157 19.375C7.54934 19.1806 7.66712 19 7.8349 18.8333L18.8349 7.83333C19.1405 7.52778 19.5227 7.375 19.9816 7.375C20.4405 7.375 20.836 7.52778 21.1682 7.83333C21.5016 8.16667 21.6682 8.56278 21.6682 9.02167C21.6682 9.48056 21.5016 9.87611 21.1682 10.2083L13.0416 18.3333H31.6666C32.1388 18.3333 32.5349 18.4933 32.8549 18.8133C33.1749 19.1333 33.3343 19.5289 33.3332 20C33.3321 20.4711 33.1721 20.8672 32.8532 21.1883C32.5343 21.5094 32.1388 21.6689 31.6666 21.6667H13.0416Z" fill="black"/>
</svg>
