<svg width="226" height="40" viewBox="0 0 226 40" fill="none" xmlns="http://www.w3.org/2000/svg">
<rect x="13" width="200" height="40" rx="12" fill="white"/>
<path d="M50.714 14.7466C50.9875 14.4355 51.473 14.3912 51.798 14.6479C52.123 14.9047 52.1643 15.3652 51.8908 15.6763L42.633 26.2056C42.5942 26.2594 42.5507 26.3122 42.4953 26.356C42.3735 26.452 42.2293 26.5055 42.0822 26.519H41.9181C41.771 26.5055 41.6268 26.452 41.505 26.356C41.4477 26.3107 41.402 26.2567 41.3625 26.2007L32.1095 15.6763C31.8361 15.3652 31.8774 14.9047 32.2023 14.6479C32.5273 14.3912 33.0128 14.4355 33.2863 14.7466L42.0001 24.6577L50.714 14.7466Z" fill="black"/>
<path d="M69.6816 28.24C68.3083 28.24 67.1216 27.94 66.1216 27.34C65.135 26.7267 64.3683 25.88 63.8216 24.8C63.2883 23.7067 63.0216 22.44 63.0216 21C63.0216 19.56 63.2883 18.3 63.8216 17.22C64.3683 16.1267 65.135 15.28 66.1216 14.68C67.1216 14.0667 68.3083 13.76 69.6816 13.76C71.295 13.76 72.6016 14.14 73.6016 14.9C74.6016 15.66 75.2416 16.7333 75.5216 18.12H73.6616C73.4483 17.2533 73.015 16.56 72.3616 16.04C71.7083 15.5067 70.815 15.24 69.6816 15.24C68.6816 15.24 67.8083 15.4733 67.0616 15.94C66.3283 16.3933 65.755 17.0533 65.3416 17.92C64.9416 18.7733 64.7416 19.8 64.7416 21C64.7416 22.2 64.9416 23.2333 65.3416 24.1C65.755 24.9533 66.3283 25.6133 67.0616 26.08C67.8083 26.5333 68.6816 26.76 69.6816 26.76C70.815 26.76 71.7083 26.5067 72.3616 26C73.015 25.48 73.4483 24.7933 73.6616 23.94H75.5216C75.2416 25.2867 74.6016 26.34 73.6016 27.1C72.6016 27.86 71.295 28.24 69.6816 28.24ZM77.4366 28V13.6H79.1166V19.72C79.45 19.1067 79.9166 18.6333 80.5166 18.3C81.13 17.9533 81.8033 17.78 82.5366 17.78C83.2966 17.78 83.9633 17.94 84.5366 18.26C85.11 18.5667 85.55 19.04 85.8566 19.68C86.1766 20.32 86.3366 21.1333 86.3366 22.12V28H84.6766V22.3C84.6766 21.2733 84.4633 20.5067 84.0366 20C83.61 19.48 82.99 19.22 82.1766 19.22C81.6033 19.22 81.0833 19.36 80.6166 19.64C80.15 19.92 79.7833 20.32 79.5166 20.84C79.25 21.36 79.1166 22.0067 79.1166 22.78V28H77.4366ZM92.9615 28.24C92.0148 28.24 91.1748 28.0267 90.4415 27.6C89.7082 27.16 89.1282 26.5467 88.7015 25.76C88.2882 24.9733 88.0815 24.0533 88.0815 23C88.0815 21.9467 88.2882 21.0333 88.7015 20.26C89.1148 19.4733 89.6882 18.8667 90.4215 18.44C91.1682 18 92.0282 17.78 93.0015 17.78C93.9748 17.78 94.8082 18 95.5015 18.44C96.1948 18.8667 96.7215 19.4333 97.0815 20.14C97.4548 20.8467 97.6415 21.62 97.6415 22.46C97.6415 22.5933 97.6415 22.7333 97.6415 22.88C97.6415 23.0267 97.6348 23.1933 97.6215 23.38H89.3415V22.08H95.9815C95.9548 21.1733 95.6548 20.4667 95.0815 19.96C94.5215 19.4533 93.8148 19.2 92.9615 19.2C92.3882 19.2 91.8548 19.3267 91.3615 19.58C90.8682 19.8333 90.4682 20.2067 90.1615 20.7C89.8682 21.1933 89.7215 21.8067 89.7215 22.54V23.1C89.7215 23.9267 89.8748 24.62 90.1815 25.18C90.4882 25.7267 90.8882 26.14 91.3815 26.42C91.8748 26.6867 92.4015 26.82 92.9615 26.82C93.6548 26.82 94.2282 26.6667 94.6815 26.36C95.1482 26.04 95.4882 25.6067 95.7015 25.06H97.3615C97.1882 25.66 96.9015 26.2 96.5015 26.68C96.1148 27.16 95.6215 27.54 95.0215 27.82C94.4348 28.1 93.7482 28.24 92.9615 28.24ZM104.048 28.24C103.102 28.24 102.248 28.02 101.488 27.58C100.742 27.14 100.148 26.5333 99.7082 25.76C99.2815 24.9733 99.0682 24.06 99.0682 23.02C99.0682 21.9667 99.2815 21.0533 99.7082 20.28C100.148 19.4933 100.742 18.88 101.488 18.44C102.248 18 103.102 17.78 104.048 17.78C105.235 17.78 106.228 18.0867 107.028 18.7C107.828 19.3133 108.335 20.14 108.548 21.18H106.828C106.695 20.5533 106.368 20.0733 105.848 19.74C105.328 19.3933 104.722 19.22 104.028 19.22C103.468 19.22 102.942 19.36 102.448 19.64C101.955 19.92 101.555 20.3467 101.248 20.92C100.942 21.48 100.788 22.1733 100.788 23C100.788 23.6267 100.875 24.18 101.048 24.66C101.235 25.1267 101.475 25.5267 101.768 25.86C102.075 26.18 102.422 26.42 102.808 26.58C103.208 26.74 103.615 26.82 104.028 26.82C104.495 26.82 104.922 26.7467 105.308 26.6C105.695 26.44 106.022 26.2133 106.288 25.92C106.555 25.6133 106.735 25.2533 106.828 24.84H108.548C108.335 25.8533 107.828 26.6733 107.028 27.3C106.228 27.9267 105.235 28.24 104.048 28.24ZM116.734 28L111.914 22.52L116.274 18.02H118.334L113.334 23.12L113.354 21.92L118.874 28H116.734ZM110.514 28V13.6H112.194V28H110.514ZM125.492 28.24C124.932 28.24 124.419 28.16 123.952 28C123.499 27.84 123.092 27.62 122.732 27.34C122.385 27.06 122.099 26.7267 121.872 26.34L121.712 28H120.192V13.6H121.872V19.66C122.192 19.1667 122.652 18.7333 123.252 18.36C123.852 17.9733 124.605 17.78 125.512 17.78C126.485 17.78 127.339 18.0067 128.072 18.46C128.805 18.9133 129.372 19.54 129.772 20.34C130.185 21.1267 130.392 22.02 130.392 23.02C130.392 24.0333 130.185 24.9333 129.772 25.72C129.372 26.4933 128.805 27.1067 128.072 27.56C127.339 28.0133 126.479 28.24 125.492 28.24ZM125.312 26.78C125.965 26.78 126.545 26.6267 127.052 26.32C127.572 26 127.972 25.56 128.252 25C128.545 24.4267 128.692 23.76 128.692 23C128.692 22.2533 128.545 21.6 128.252 21.04C127.972 20.4667 127.572 20.0267 127.052 19.72C126.545 19.4 125.965 19.24 125.312 19.24C124.645 19.24 124.052 19.4 123.532 19.72C123.025 20.0267 122.625 20.4667 122.332 21.04C122.052 21.6 121.912 22.2533 121.912 23C121.912 23.76 122.052 24.4267 122.332 25C122.625 25.56 123.025 26 123.532 26.32C124.052 26.6267 124.645 26.78 125.312 26.78ZM136.851 28.24C135.918 28.24 135.078 28.0267 134.331 27.6C133.585 27.1733 132.991 26.5667 132.551 25.78C132.125 24.9933 131.911 24.0733 131.911 23.02C131.911 21.9533 132.131 21.0267 132.571 20.24C133.011 19.4533 133.605 18.8467 134.351 18.42C135.111 17.9933 135.958 17.78 136.891 17.78C137.838 17.78 138.685 17.9933 139.431 18.42C140.178 18.8467 140.765 19.4533 141.191 20.24C141.618 21.0267 141.831 21.9533 141.831 23.02C141.831 24.0733 141.611 24.9933 141.171 25.78C140.745 26.5667 140.151 27.1733 139.391 27.6C138.645 28.0267 137.798 28.24 136.851 28.24ZM136.851 26.8C137.438 26.8 137.978 26.66 138.471 26.38C138.965 26.1 139.358 25.68 139.651 25.12C139.958 24.5467 140.111 23.84 140.111 23C140.111 22.16 139.965 21.46 139.671 20.9C139.378 20.34 138.985 19.92 138.491 19.64C137.998 19.36 137.465 19.22 136.891 19.22C136.331 19.22 135.798 19.36 135.291 19.64C134.798 19.92 134.398 20.34 134.091 20.9C133.785 21.46 133.631 22.1667 133.631 23.02C133.631 23.8467 133.785 24.5467 134.091 25.12C134.398 25.68 134.791 26.1 135.271 26.38C135.765 26.66 136.291 26.8 136.851 26.8ZM142.377 28L145.797 23L142.377 18.02H144.197L146.957 22.12L149.737 18.02H151.537L148.097 23L151.537 28H149.737L146.957 23.88L144.197 28H142.377Z" fill="black"/>
</svg>
