<svg width="226" height="40" viewBox="0 0 226 40" fill="none" xmlns="http://www.w3.org/2000/svg">
<rect x="13" width="200" height="40" rx="12" fill="white"/>
<path d="M50.714 14.7466C50.9875 14.4355 51.473 14.3912 51.798 14.6479C52.123 14.9047 52.1643 15.3652 51.8908 15.6763L42.633 26.2056C42.5942 26.2594 42.5507 26.3122 42.4953 26.356C42.3735 26.452 42.2293 26.5056 42.0822 26.519H41.9181C41.771 26.5055 41.6268 26.452 41.505 26.356C41.4477 26.3107 41.402 26.2567 41.3625 26.2007L32.1095 15.6763C31.8361 15.3652 31.8774 14.9047 32.2023 14.6479C32.5273 14.3912 33.0128 14.4355 33.2863 14.7466L42.0001 24.6577L50.714 14.7466Z" fill="black"/>
<path d="M63.9101 28V14H68.1501C69.7901 14 71.1434 14.2867 72.2101 14.86C73.2767 15.42 74.0634 16.2267 74.5701 17.28C75.0901 18.32 75.3501 19.5733 75.3501 21.04C75.3501 22.48 75.0901 23.72 74.5701 24.76C74.0634 25.8 73.2767 26.6 72.2101 27.16C71.1434 27.72 69.7901 28 68.1501 28H63.9101ZM65.5901 26.6H68.1101C69.4701 26.6 70.5501 26.38 71.3501 25.94C72.1634 25.4867 72.7434 24.8467 73.0901 24.02C73.4367 23.18 73.6101 22.1867 73.6101 21.04C73.6101 19.8667 73.4367 18.86 73.0901 18.02C72.7434 17.18 72.1634 16.5333 71.3501 16.08C70.5501 15.6267 69.4701 15.4 68.1101 15.4H65.5901V26.6ZM80.5773 28.24C79.7506 28.24 79.0639 28.1 78.5173 27.82C77.9839 27.54 77.5839 27.1667 77.3173 26.7C77.0506 26.22 76.9173 25.7067 76.9173 25.16C76.9173 24.48 77.0906 23.9067 77.4373 23.44C77.7973 22.9733 78.2973 22.6133 78.9373 22.36C79.5773 22.1067 80.3373 21.98 81.2173 21.98H83.8973C83.8973 21.3667 83.7973 20.8533 83.5973 20.44C83.4106 20.0267 83.1306 19.72 82.7573 19.52C82.3839 19.3067 81.9306 19.2 81.3973 19.2C80.7573 19.2 80.1973 19.3667 79.7173 19.7C79.2373 20.02 78.9439 20.4867 78.8373 21.1H77.1173C77.1973 20.38 77.4439 19.78 77.8573 19.3C78.2706 18.8067 78.7906 18.4333 79.4173 18.18C80.0439 17.9133 80.7039 17.78 81.3973 17.78C82.3173 17.78 83.0839 17.9533 83.6973 18.3C84.3239 18.6333 84.7906 19.1067 85.0973 19.72C85.4173 20.32 85.5773 21.0267 85.5773 21.84V28H84.0773L83.9773 26.22C83.8439 26.5 83.6706 26.7667 83.4573 27.02C83.2573 27.26 83.0173 27.4733 82.7373 27.66C82.4706 27.8333 82.1573 27.9733 81.7973 28.08C81.4373 28.1867 81.0306 28.24 80.5773 28.24ZM80.8373 26.82C81.3173 26.82 81.7439 26.7267 82.1173 26.54C82.5039 26.34 82.8306 26.0733 83.0973 25.74C83.3639 25.4067 83.5639 25.0333 83.6973 24.62C83.8306 24.2067 83.8973 23.7733 83.8973 23.32V23.28H81.3573C80.7039 23.28 80.1773 23.36 79.7773 23.52C79.3906 23.68 79.1106 23.8933 78.9373 24.16C78.7639 24.4267 78.6773 24.7333 78.6773 25.08C78.6773 25.4267 78.7573 25.7333 78.9173 26C79.0773 26.2667 79.3173 26.4733 79.6373 26.62C79.9706 26.7533 80.3706 26.82 80.8373 26.82ZM91.4032 28C90.8032 28 90.2832 27.9067 89.8432 27.72C89.4032 27.5333 89.0632 27.22 88.8232 26.78C88.5965 26.3267 88.4832 25.72 88.4832 24.96V19.44H86.7432V18.02H88.4832L88.7032 15.62H90.1632V18.02H93.0832V19.44H90.1632V24.96C90.1632 25.5867 90.2899 26.0133 90.5432 26.24C90.7965 26.4533 91.2432 26.56 91.8832 26.56H92.9432V28H91.4032ZM99.0232 28.24C98.0765 28.24 97.2365 28.0267 96.5032 27.6C95.7699 27.16 95.1899 26.5467 94.7632 25.76C94.3499 24.9733 94.1432 24.0533 94.1432 23C94.1432 21.9467 94.3499 21.0333 94.7632 20.26C95.1765 19.4733 95.7499 18.8667 96.4832 18.44C97.2299 18 98.0899 17.78 99.0632 17.78C100.037 17.78 100.87 18 101.563 18.44C102.257 18.8667 102.783 19.4333 103.143 20.14C103.517 20.8467 103.703 21.62 103.703 22.46C103.703 22.5933 103.703 22.7333 103.703 22.88C103.703 23.0267 103.697 23.1933 103.683 23.38H95.4032V22.08H102.043C102.017 21.1733 101.717 20.4667 101.143 19.96C100.583 19.4533 99.8765 19.2 99.0232 19.2C98.4499 19.2 97.9165 19.3267 97.4232 19.58C96.9299 19.8333 96.5299 20.2067 96.2232 20.7C95.9299 21.1933 95.7832 21.8067 95.7832 22.54V23.1C95.7832 23.9267 95.9365 24.62 96.2432 25.18C96.5499 25.7267 96.9499 26.14 97.4432 26.42C97.9365 26.6867 98.4632 26.82 99.0232 26.82C99.7165 26.82 100.29 26.6667 100.743 26.36C101.21 26.04 101.55 25.6067 101.763 25.06H103.423C103.25 25.66 102.963 26.2 102.563 26.68C102.177 27.16 101.683 27.54 101.083 27.82C100.497 28.1 99.8099 28.24 99.0232 28.24Z" fill="black"/>
</svg>
