<svg width="32" height="32" viewBox="0 0 32 32" fill="none" xmlns="http://www.w3.org/2000/svg">
<path d="M9.33317 5.33332C9.33317 4.62608 9.61412 3.9478 10.1142 3.4477C10.6143 2.94761 11.2926 2.66666 11.9998 2.66666H19.9998C20.7071 2.66666 21.3854 2.94761 21.8855 3.4477C22.3856 3.9478 22.6665 4.62608 22.6665 5.33332V7.99999H27.9998C28.3535 7.99999 28.6926 8.14047 28.9426 8.39051C29.1927 8.64056 29.3332 8.9797 29.3332 9.33332C29.3332 9.68695 29.1927 10.0261 28.9426 10.2761C28.6926 10.5262 28.3535 10.6667 27.9998 10.6667H26.5745L25.4185 26.856C25.3706 27.5288 25.0696 28.1584 24.576 28.6181C24.0824 29.0778 23.433 29.3333 22.7585 29.3333H9.23984C8.56536 29.3333 7.91593 29.0778 7.42235 28.6181C6.92878 28.1584 6.62773 27.5288 6.57984 26.856L5.4265 10.6667H3.99984C3.64622 10.6667 3.30708 10.5262 3.05703 10.2761C2.80698 10.0261 2.6665 9.68695 2.6665 9.33332C2.6665 8.9797 2.80698 8.64056 3.05703 8.39051C3.30708 8.14047 3.64622 7.99999 3.99984 7.99999H9.33317V5.33332ZM11.9998 7.99999H19.9998V5.33332H11.9998V7.99999ZM8.0985 10.6667L9.24117 26.6667H22.7598L23.9025 10.6667H8.0985ZM13.3332 13.3333C13.6868 13.3333 14.0259 13.4738 14.276 13.7238C14.526 13.9739 14.6665 14.313 14.6665 14.6667V22.6667C14.6665 23.0203 14.526 23.3594 14.276 23.6095C14.0259 23.8595 13.6868 24 13.3332 24C12.9795 24 12.6404 23.8595 12.3904 23.6095C12.1403 23.3594 11.9998 23.0203 11.9998 22.6667V14.6667C11.9998 14.313 12.1403 13.9739 12.3904 13.7238C12.6404 13.4738 12.9795 13.3333 13.3332 13.3333ZM18.6665 13.3333C19.0201 13.3333 19.3593 13.4738 19.6093 13.7238C19.8594 13.9739 19.9998 14.313 19.9998 14.6667V22.6667C19.9998 23.0203 19.8594 23.3594 19.6093 23.6095C19.3593 23.8595 19.0201 24 18.6665 24C18.3129 24 17.9737 23.8595 17.7237 23.6095C17.4736 23.3594 17.3332 23.0203 17.3332 22.6667V14.6667C17.3332 14.313 17.4736 13.9739 17.7237 13.7238C17.9737 13.4738 18.3129 13.3333 18.6665 13.3333Z" fill="black"/>
</svg>
