<svg width="32" height="27" viewBox="0 0 32 27" fill="none" xmlns="http://www.w3.org/2000/svg">
<path d="M24.7139 7.74658C24.9874 7.4355 25.4728 7.3912 25.7979 7.64795C26.1229 7.9047 26.1641 8.36519 25.8906 8.67627L16.6328 19.2056C16.594 19.2594 16.5505 19.3122 16.4951 19.356C16.3734 19.452 16.2291 19.5056 16.082 19.519H15.918C15.7709 19.5055 15.6266 19.452 15.5049 19.356C15.4475 19.3107 15.4018 19.2567 15.3623 19.2007L6.10938 8.67627C5.83592 8.36523 5.87723 7.90472 6.20215 7.64795C6.52719 7.39121 7.01264 7.43551 7.28613 7.74658L16 17.6577L24.7139 7.74658Z" fill="black"/>
</svg>
