<svg width="226" height="40" viewBox="0 0 226 40" fill="none" xmlns="http://www.w3.org/2000/svg">
<rect x="13" width="200" height="40" rx="12" fill="white"/>
<path d="M50.714 14.7466C50.9875 14.4355 51.473 14.3912 51.798 14.6479C52.123 14.9047 52.1643 15.3652 51.8908 15.6763L42.633 26.2056C42.5942 26.2594 42.5507 26.3122 42.4953 26.356C42.3735 26.452 42.2293 26.5055 42.0822 26.519H41.9181C41.771 26.5055 41.6268 26.452 41.505 26.356C41.4477 26.3107 41.402 26.2567 41.3625 26.2007L32.1095 15.6763C31.8361 15.3652 31.8774 14.9047 32.2023 14.6479C32.5273 14.3912 33.0128 14.4355 33.2863 14.7466L42.0001 24.6577L50.714 14.7466Z" fill="black"/>
<path d="M63.9503 28V14H68.1903C69.8303 14 71.1836 14.2867 72.2503 14.86C73.317 15.42 74.1036 16.2267 74.6103 17.28C75.1303 18.32 75.3903 19.5733 75.3903 21.04C75.3903 22.48 75.1303 23.72 74.6103 24.76C74.1036 25.8 73.317 26.6 72.2503 27.16C71.1836 27.72 69.8303 28 68.1903 28H63.9503ZM65.6303 26.6H68.1503C69.5103 26.6 70.5903 26.38 71.3903 25.94C72.2036 25.4867 72.7836 24.8467 73.1303 24.02C73.477 23.18 73.6503 22.1867 73.6503 21.04C73.6503 19.8667 73.477 18.86 73.1303 18.02C72.7836 17.18 72.2036 16.5333 71.3903 16.08C70.5903 15.6267 69.5103 15.4 68.1503 15.4H65.6303V26.6ZM77.3175 28V18.02H78.8375L78.9775 19.94C79.1908 19.4867 79.4708 19.1 79.8175 18.78C80.1775 18.46 80.5975 18.2133 81.0775 18.04C81.5708 17.8667 82.1308 17.78 82.7575 17.78V19.54H82.2375C81.7975 19.54 81.3775 19.6 80.9775 19.72C80.5908 19.8267 80.2442 20.0067 79.9375 20.26C79.6442 20.5133 79.4108 20.86 79.2375 21.3C79.0775 21.7267 78.9975 22.2667 78.9975 22.92V28H77.3175ZM88.3906 28.24C87.4573 28.24 86.6173 28.0267 85.8706 27.6C85.124 27.1733 84.5306 26.5667 84.0906 25.78C83.664 24.9933 83.4506 24.0733 83.4506 23.02C83.4506 21.9533 83.6706 21.0267 84.1106 20.24C84.5506 19.4533 85.144 18.8467 85.8906 18.42C86.6506 17.9933 87.4973 17.78 88.4306 17.78C89.3773 17.78 90.224 17.9933 90.9706 18.42C91.7173 18.8467 92.304 19.4533 92.7306 20.24C93.1573 21.0267 93.3706 21.9533 93.3706 23.02C93.3706 24.0733 93.1506 24.9933 92.7106 25.78C92.284 26.5667 91.6906 27.1733 90.9306 27.6C90.184 28.0267 89.3373 28.24 88.3906 28.24ZM88.3906 26.8C88.9773 26.8 89.5173 26.66 90.0106 26.38C90.504 26.1 90.8973 25.68 91.1906 25.12C91.4973 24.5467 91.6506 23.84 91.6506 23C91.6506 22.16 91.504 21.46 91.2106 20.9C90.9173 20.34 90.524 19.92 90.0306 19.64C89.5373 19.36 89.004 19.22 88.4306 19.22C87.8706 19.22 87.3373 19.36 86.8306 19.64C86.3373 19.92 85.9373 20.34 85.6306 20.9C85.324 21.46 85.1706 22.1667 85.1706 23.02C85.1706 23.8467 85.324 24.5467 85.6306 25.12C85.9373 25.68 86.3306 26.1 86.8106 26.38C87.304 26.66 87.8306 26.8 88.3906 26.8ZM95.3261 32.4V18.02H96.8461L97.0061 19.66C97.2194 19.34 97.4928 19.04 97.8261 18.76C98.1594 18.4667 98.5594 18.2333 99.0261 18.06C99.4928 17.8733 100.033 17.78 100.646 17.78C101.619 17.78 102.473 18.0133 103.206 18.48C103.939 18.9333 104.506 19.5533 104.906 20.34C105.319 21.1267 105.526 22.0267 105.526 23.04C105.526 24.04 105.319 24.9333 104.906 25.72C104.506 26.5067 103.933 27.1267 103.186 27.58C102.453 28.02 101.599 28.24 100.626 28.24C99.8128 28.24 99.0928 28.0733 98.4661 27.74C97.8394 27.4067 97.3528 26.94 97.0061 26.34V32.4H95.3261ZM100.446 26.78C101.099 26.78 101.679 26.6267 102.186 26.32C102.706 26 103.106 25.56 103.386 25C103.679 24.4267 103.826 23.76 103.826 23C103.826 22.2533 103.679 21.6 103.386 21.04C103.106 20.4667 102.706 20.0267 102.186 19.72C101.679 19.4 101.099 19.24 100.446 19.24C99.7794 19.24 99.1861 19.4 98.6661 19.72C98.1594 20.0267 97.7594 20.4667 97.4661 21.04C97.1861 21.6 97.0461 22.2533 97.0461 23C97.0461 23.76 97.1861 24.4267 97.4661 25C97.7594 25.56 98.1594 26 98.6661 26.32C99.1861 26.6267 99.7794 26.78 100.446 26.78ZM111.945 28.24C110.972 28.24 110.112 28.0133 109.365 27.56C108.632 27.1067 108.058 26.4867 107.645 25.7C107.245 24.9 107.045 23.9933 107.045 22.98C107.045 21.98 107.245 21.0867 107.645 20.3C108.058 19.5133 108.638 18.9 109.385 18.46C110.132 18.0067 110.992 17.78 111.965 17.78C112.778 17.78 113.498 17.9467 114.125 18.28C114.765 18.6133 115.252 19.08 115.585 19.68V13.6H117.265V28H115.745L115.585 26.36C115.372 26.68 115.098 26.9867 114.765 27.28C114.432 27.56 114.032 27.7933 113.565 27.98C113.098 28.1533 112.558 28.24 111.945 28.24ZM112.145 26.78C112.812 26.78 113.398 26.6267 113.905 26.32C114.412 26 114.805 25.56 115.085 25C115.378 24.4267 115.525 23.76 115.525 23C115.525 22.2533 115.378 21.6 115.085 21.04C114.805 20.4667 114.412 20.0267 113.905 19.72C113.398 19.4 112.812 19.24 112.145 19.24C111.492 19.24 110.905 19.4 110.385 19.72C109.878 20.0267 109.478 20.4667 109.185 21.04C108.905 21.6 108.765 22.2533 108.765 23C108.765 23.76 108.905 24.4267 109.185 25C109.478 25.56 109.878 26 110.385 26.32C110.905 26.6267 111.492 26.78 112.145 26.78ZM124.144 28.24C123.21 28.24 122.37 28.0267 121.624 27.6C120.877 27.1733 120.284 26.5667 119.844 25.78C119.417 24.9933 119.204 24.0733 119.204 23.02C119.204 21.9533 119.424 21.0267 119.864 20.24C120.304 19.4533 120.897 18.8467 121.644 18.42C122.404 17.9933 123.25 17.78 124.184 17.78C125.13 17.78 125.977 17.9933 126.724 18.42C127.47 18.8467 128.057 19.4533 128.484 20.24C128.91 21.0267 129.124 21.9533 129.124 23.02C129.124 24.0733 128.904 24.9933 128.464 25.78C128.037 26.5667 127.444 27.1733 126.684 27.6C125.937 28.0267 125.09 28.24 124.144 28.24ZM124.144 26.8C124.73 26.8 125.27 26.66 125.764 26.38C126.257 26.1 126.65 25.68 126.944 25.12C127.25 24.5467 127.404 23.84 127.404 23C127.404 22.16 127.257 21.46 126.964 20.9C126.67 20.34 126.277 19.92 125.784 19.64C125.29 19.36 124.757 19.22 124.184 19.22C123.624 19.22 123.09 19.36 122.584 19.64C122.09 19.92 121.69 20.34 121.384 20.9C121.077 21.46 120.924 22.1667 120.924 23.02C120.924 23.8467 121.077 24.5467 121.384 25.12C121.69 25.68 122.084 26.1 122.564 26.38C123.057 26.66 123.584 26.8 124.144 26.8ZM132.728 28L129.808 18.02H131.488L133.788 26.54L133.408 26.52L135.948 18.02H137.848L140.388 26.52L139.988 26.54L142.288 18.02H143.988L141.068 28H139.348L136.708 19.1H137.108L134.448 28H132.728ZM145.445 28V18.02H146.965L147.065 19.78C147.385 19.1667 147.845 18.68 148.445 18.32C149.045 17.96 149.725 17.78 150.485 17.78C151.272 17.78 151.952 17.94 152.525 18.26C153.098 18.5667 153.545 19.04 153.865 19.68C154.185 20.32 154.345 21.1267 154.345 22.1V28H152.665V22.28C152.665 21.2667 152.438 20.5067 151.985 20C151.545 19.48 150.918 19.22 150.105 19.22C149.532 19.22 149.018 19.36 148.565 19.64C148.125 19.9067 147.772 20.3067 147.505 20.84C147.252 21.36 147.125 22 147.125 22.76V28H145.445Z" fill="black"/>
</svg>
