<svg width="86" height="31" viewBox="0 0 86 31" fill="none" xmlns="http://www.w3.org/2000/svg">
<rect width="86" height="31" rx="12" fill="#E7EEF5"/>
<g clip-path="url(#clip0_40000186_1911)">
<path d="M18 25.5C12.4816 25.5 8 21.0184 8 15.5C8 9.9816 12.4816 5.5 18 5.5C23.5184 5.5 28 9.9816 28 15.5C28 21.0184 23.5184 25.5 18 25.5ZM18 24.7248C23.1024 24.7248 27.2504 20.6024 27.2504 15.5C27.2504 10.3976 23.1024 6.2752 18 6.2752C16.7882 6.27394 15.5881 6.51168 14.4683 6.97482C13.3486 7.43797 12.3311 8.11741 11.4743 8.97426C10.6174 9.83112 9.93797 10.8486 9.47482 11.9683C9.01168 13.0881 8.77394 14.2882 8.7752 15.5C8.77394 16.7118 9.01168 17.9119 9.47482 19.0317C9.93797 20.1514 10.6174 21.1689 11.4743 22.0257C12.3311 22.8826 13.3486 23.562 14.4683 24.0252C15.5881 24.4883 16.7882 24.7261 18 24.7248ZM15.4496 19.1L15.3248 19C14.0304 17.88 12.8048 16.8304 11.6496 15.8L11.3248 15.5L11.6504 15.2C12.9968 14.016 14.4 12.9248 15.3248 12L15.4248 11.9H24V19.1H15.4496ZM15.7504 18.3H23.2V12.7H15.7496C14.8672 13.564 13.6832 14.5024 12.5256 15.5C13.544 16.4024 14.62 17.3216 15.7504 18.3ZM16.4 16.7C15.7416 16.7 15.2 16.1576 15.2 15.5C15.2 14.8424 15.7416 14.3 16.4 14.3C17.0584 14.3 17.6 14.8424 17.6 15.5C17.6 16.1576 17.0584 16.7 16.4 16.7ZM16.4 15.9C16.6256 15.9 16.8 15.7256 16.8 15.5C16.8 15.2744 16.6256 15.1 16.4 15.1C16.3473 15.0992 16.2949 15.1091 16.246 15.1289C16.1972 15.1487 16.1528 15.1782 16.1155 15.2155C16.0782 15.2528 16.0487 15.2972 16.0289 15.346C16.0091 15.3949 15.9992 15.4473 16 15.5C16 15.7256 16.1744 15.9 16.4 15.9Z" fill="black"/>
</g>
<path d="M39.4716 21.5V9.86364H46.4489V11.1136H40.8807V15.0455H45.9261V16.2955H40.8807V21.5H39.4716ZM51.2486 21.7045C50.6955 21.7045 50.1937 21.6004 49.7429 21.392C49.2921 21.1799 48.9342 20.875 48.669 20.4773C48.4039 20.0758 48.2713 19.5909 48.2713 19.0227C48.2713 18.5227 48.3698 18.1174 48.5668 17.8068C48.7637 17.4924 49.027 17.2462 49.3565 17.0682C49.6861 16.8902 50.0497 16.7576 50.4474 16.6705C50.849 16.5795 51.2524 16.5076 51.6577 16.4545C52.188 16.3864 52.6179 16.3352 52.9474 16.3011C53.2808 16.2633 53.5232 16.2008 53.6747 16.1136C53.83 16.0265 53.9077 15.875 53.9077 15.6591V15.6136C53.9077 15.053 53.7543 14.6174 53.4474 14.3068C53.1444 13.9962 52.6842 13.8409 52.0668 13.8409C51.4266 13.8409 50.9247 13.9811 50.5611 14.2614C50.1974 14.5417 49.9418 14.8409 49.794 15.1591L48.5213 14.7045C48.7486 14.1742 49.0516 13.7614 49.4304 13.4659C49.813 13.1667 50.2296 12.9583 50.6804 12.8409C51.1349 12.7197 51.5819 12.6591 52.0213 12.6591C52.3016 12.6591 52.6236 12.6932 52.9872 12.7614C53.3546 12.8258 53.7088 12.9602 54.0497 13.1648C54.3944 13.3693 54.6804 13.678 54.9077 14.0909C55.1349 14.5038 55.2486 15.0568 55.2486 15.75V21.5H53.9077V20.3182H53.8395C53.7486 20.5076 53.5971 20.7102 53.3849 20.9261C53.1728 21.142 52.8906 21.3258 52.5384 21.4773C52.1861 21.6288 51.7562 21.7045 51.2486 21.7045ZM51.4531 20.5C51.9834 20.5 52.4304 20.3958 52.794 20.1875C53.1615 19.9792 53.438 19.7102 53.6236 19.3807C53.813 19.0511 53.9077 18.7045 53.9077 18.3409V17.1136C53.8509 17.1818 53.7259 17.2443 53.5327 17.3011C53.3433 17.3542 53.1236 17.4015 52.8736 17.4432C52.6274 17.4811 52.3868 17.5152 52.152 17.5455C51.9209 17.572 51.7334 17.5947 51.5895 17.6136C51.241 17.6591 50.9152 17.733 50.6122 17.8352C50.313 17.9337 50.0705 18.0833 49.8849 18.2841C49.7031 18.4811 49.6122 18.75 49.6122 19.0909C49.6122 19.5568 49.7846 19.9091 50.1293 20.1477C50.4777 20.3826 50.919 20.5 51.4531 20.5ZM59.0369 9.86364V21.5H57.696V9.86364H59.0369ZM67.6747 14.7273L66.4702 15.0682C66.3944 14.8674 66.2827 14.6723 66.1349 14.483C65.991 14.2898 65.794 14.1307 65.544 14.0057C65.294 13.8807 64.974 13.8182 64.5838 13.8182C64.0497 13.8182 63.6046 13.9413 63.2486 14.1875C62.8963 14.4299 62.7202 14.7386 62.7202 15.1136C62.7202 15.447 62.8414 15.7102 63.0838 15.9034C63.3262 16.0966 63.705 16.2576 64.2202 16.3864L65.5156 16.7045C66.2959 16.8939 66.8774 17.1837 67.2599 17.5739C67.6425 17.9602 67.8338 18.4583 67.8338 19.0682C67.8338 19.5682 67.6899 20.0152 67.402 20.4091C67.1179 20.803 66.7202 21.1136 66.2088 21.3409C65.6974 21.5682 65.1027 21.6818 64.4247 21.6818C63.5346 21.6818 62.7978 21.4886 62.2145 21.1023C61.6312 20.7159 61.2618 20.1515 61.1065 19.4091L62.3793 19.0909C62.5005 19.5606 62.7296 19.9129 63.0668 20.1477C63.4077 20.3826 63.8527 20.5 64.402 20.5C65.027 20.5 65.5232 20.3674 65.8906 20.1023C66.2618 19.8333 66.4474 19.5114 66.4474 19.1364C66.4474 18.8333 66.3414 18.5795 66.1293 18.375C65.9171 18.1667 65.5914 18.0114 65.152 17.9091L63.6974 17.5682C62.8982 17.3788 62.3111 17.0852 61.9361 16.6875C61.5649 16.286 61.3793 15.7841 61.3793 15.1818C61.3793 14.6894 61.5175 14.2538 61.794 13.875C62.0743 13.4962 62.455 13.1989 62.9361 12.983C63.4209 12.767 63.9702 12.6591 64.5838 12.6591C65.4474 12.6591 66.1255 12.8485 66.6179 13.2273C67.1141 13.6061 67.4664 14.1061 67.6747 14.7273ZM73.5114 21.6818C72.6705 21.6818 71.9451 21.4962 71.3352 21.125C70.7292 20.75 70.2614 20.2273 69.9318 19.5568C69.6061 18.8826 69.4432 18.0985 69.4432 17.2045C69.4432 16.3106 69.6061 15.5227 69.9318 14.8409C70.2614 14.1553 70.7197 13.6212 71.3068 13.2386C71.8977 12.8523 72.5871 12.6591 73.375 12.6591C73.8295 12.6591 74.2784 12.7348 74.7216 12.8864C75.1648 13.0379 75.5682 13.2841 75.9318 13.625C76.2955 13.9621 76.5852 14.4091 76.8011 14.9659C77.017 15.5227 77.125 16.2083 77.125 17.0227V17.5909H70.3977V16.4318H75.7614C75.7614 15.9394 75.6629 15.5 75.4659 15.1136C75.2727 14.7273 74.9962 14.4223 74.6364 14.1989C74.2803 13.9754 73.8598 13.8636 73.375 13.8636C72.8409 13.8636 72.3788 13.9962 71.9886 14.2614C71.6023 14.5227 71.3049 14.8636 71.0966 15.2841C70.8883 15.7045 70.7841 16.1553 70.7841 16.6364V17.4091C70.7841 18.0682 70.8977 18.6269 71.125 19.0852C71.3561 19.5398 71.6761 19.8864 72.0852 20.125C72.4943 20.3598 72.9697 20.4773 73.5114 20.4773C73.8636 20.4773 74.1818 20.428 74.4659 20.3295C74.7538 20.2273 75.0019 20.0758 75.2102 19.875C75.4186 19.6705 75.5795 19.4167 75.6932 19.1136L76.9886 19.4773C76.8523 19.9167 76.6231 20.303 76.3011 20.6364C75.9792 20.9659 75.5814 21.2235 75.108 21.4091C74.6345 21.5909 74.1023 21.6818 73.5114 21.6818Z" fill="black"/>
<defs>
<clipPath id="clip0_40000186_1911">
<rect width="20" height="20" fill="white" transform="matrix(1 0 0 -1 8 25.5)"/>
</clipPath>
</defs>
</svg>
