<svg width="226" height="40" viewBox="0 0 226 40" fill="none" xmlns="http://www.w3.org/2000/svg">
<rect x="13" width="200" height="40" rx="12" fill="white"/>
<path d="M50.714 14.7466C50.9875 14.4355 51.473 14.3912 51.798 14.6479C52.123 14.9047 52.1643 15.3652 51.8908 15.6763L42.633 26.2056C42.5942 26.2594 42.5507 26.3122 42.4953 26.356C42.3735 26.452 42.2293 26.5056 42.0822 26.519H41.9181C41.771 26.5055 41.6268 26.452 41.505 26.356C41.4477 26.3107 41.402 26.2567 41.3625 26.2007L32.1095 15.6763C31.8361 15.3652 31.8774 14.9047 32.2023 14.6479C32.5273 14.3912 33.0128 14.4355 33.2863 14.7466L42.0001 24.6577L50.714 14.7466Z" fill="black"/>
<path d="M63.4937 28V14H72.0137V15.38H65.1737V20.3H70.9937V21.66H65.1737V28H63.4937ZM73.8768 28V18.02H75.5568V28H73.8768ZM74.7168 15.84C74.3835 15.84 74.1035 15.7333 73.8768 15.52C73.6635 15.2933 73.5568 15.0133 73.5568 14.68C73.5568 14.3467 73.6635 14.08 73.8768 13.88C74.1035 13.6667 74.3835 13.56 74.7168 13.56C75.0368 13.56 75.3101 13.6667 75.5368 13.88C75.7635 14.08 75.8768 14.3467 75.8768 14.68C75.8768 15.0133 75.7635 15.2933 75.5368 15.52C75.3101 15.7333 75.0368 15.84 74.7168 15.84ZM78.082 28V13.6H79.762V28H78.082ZM86.5755 28.24C85.6289 28.24 84.7889 28.0267 84.0555 27.6C83.3222 27.16 82.7422 26.5467 82.3155 25.76C81.9022 24.9733 81.6955 24.0533 81.6955 23C81.6955 21.9467 81.9022 21.0333 82.3155 20.26C82.7289 19.4733 83.3022 18.8667 84.0355 18.44C84.7822 18 85.6422 17.78 86.6155 17.78C87.5889 17.78 88.4222 18 89.1155 18.44C89.8089 18.8667 90.3355 19.4333 90.6955 20.14C91.0689 20.8467 91.2555 21.62 91.2555 22.46C91.2555 22.5933 91.2555 22.7333 91.2555 22.88C91.2555 23.0267 91.2489 23.1933 91.2355 23.38H82.9555V22.08H89.5955C89.5689 21.1733 89.2689 20.4667 88.6955 19.96C88.1355 19.4533 87.4289 19.2 86.5755 19.2C86.0022 19.2 85.4689 19.3267 84.9755 19.58C84.4822 19.8333 84.0822 20.2067 83.7755 20.7C83.4822 21.1933 83.3355 21.8067 83.3355 22.54V23.1C83.3355 23.9267 83.4889 24.62 83.7955 25.18C84.1022 25.7267 84.5022 26.14 84.9955 26.42C85.4889 26.6867 86.0155 26.82 86.5755 26.82C87.2689 26.82 87.8422 26.6667 88.2955 26.36C88.7622 26.04 89.1022 25.6067 89.3155 25.06H90.9755C90.8022 25.66 90.5155 26.2 90.1155 26.68C89.7289 27.16 89.2355 27.54 88.6355 27.82C88.0489 28.1 87.3622 28.24 86.5755 28.24ZM103.155 28.24C102.195 28.24 101.322 28.0467 100.535 27.66C99.7619 27.2733 99.1419 26.6867 98.6752 25.9C98.2086 25.1 97.9752 24.08 97.9752 22.84V14H99.6552V22.86C99.6552 23.7667 99.8019 24.5067 100.095 25.08C100.402 25.6533 100.822 26.0733 101.355 26.34C101.889 26.6067 102.502 26.74 103.195 26.74C103.902 26.74 104.515 26.6067 105.035 26.34C105.555 26.0733 105.962 25.6533 106.255 25.08C106.549 24.5067 106.695 23.7667 106.695 22.86V14H108.375V22.84C108.375 24.08 108.142 25.1 107.675 25.9C107.209 26.6867 106.582 27.2733 105.795 27.66C105.009 28.0467 104.129 28.24 103.155 28.24ZM110.72 32.4V18.02H112.24L112.4 19.66C112.614 19.34 112.887 19.04 113.22 18.76C113.554 18.4667 113.954 18.2333 114.42 18.06C114.887 17.8733 115.427 17.78 116.04 17.78C117.014 17.78 117.867 18.0133 118.6 18.48C119.334 18.9333 119.9 19.5533 120.3 20.34C120.714 21.1267 120.92 22.0267 120.92 23.04C120.92 24.04 120.714 24.9333 120.3 25.72C119.9 26.5067 119.327 27.1267 118.58 27.58C117.847 28.02 116.994 28.24 116.02 28.24C115.207 28.24 114.487 28.0733 113.86 27.74C113.234 27.4067 112.747 26.94 112.4 26.34V32.4H110.72ZM115.84 26.78C116.494 26.78 117.074 26.6267 117.58 26.32C118.1 26 118.5 25.56 118.78 25C119.074 24.4267 119.22 23.76 119.22 23C119.22 22.2533 119.074 21.6 118.78 21.04C118.5 20.4667 118.1 20.0267 117.58 19.72C117.074 19.4 116.494 19.24 115.84 19.24C115.174 19.24 114.58 19.4 114.06 19.72C113.554 20.0267 113.154 20.4667 112.86 21.04C112.58 21.6 112.44 22.2533 112.44 23C112.44 23.76 112.58 24.4267 112.86 25C113.154 25.56 113.554 26 114.06 26.32C114.58 26.6267 115.174 26.78 115.84 26.78ZM122.859 28V13.6H124.539V28H122.859ZM131.413 28.24C130.48 28.24 129.64 28.0267 128.893 27.6C128.146 27.1733 127.553 26.5667 127.113 25.78C126.686 24.9933 126.473 24.0733 126.473 23.02C126.473 21.9533 126.693 21.0267 127.133 20.24C127.573 19.4533 128.166 18.8467 128.913 18.42C129.673 17.9933 130.52 17.78 131.453 17.78C132.4 17.78 133.246 17.9933 133.993 18.42C134.74 18.8467 135.326 19.4533 135.753 20.24C136.18 21.0267 136.393 21.9533 136.393 23.02C136.393 24.0733 136.173 24.9933 135.733 25.78C135.306 26.5667 134.713 27.1733 133.953 27.6C133.206 28.0267 132.36 28.24 131.413 28.24ZM131.413 26.8C132 26.8 132.54 26.66 133.033 26.38C133.526 26.1 133.92 25.68 134.213 25.12C134.52 24.5467 134.673 23.84 134.673 23C134.673 22.16 134.526 21.46 134.233 20.9C133.94 20.34 133.546 19.92 133.053 19.64C132.56 19.36 132.026 19.22 131.453 19.22C130.893 19.22 130.36 19.36 129.853 19.64C129.36 19.92 128.96 20.34 128.653 20.9C128.346 21.46 128.193 22.1667 128.193 23.02C128.193 23.8467 128.346 24.5467 128.653 25.12C128.96 25.68 129.353 26.1 129.833 26.38C130.326 26.66 130.853 26.8 131.413 26.8ZM141.648 28.24C140.822 28.24 140.135 28.1 139.588 27.82C139.055 27.54 138.655 27.1667 138.388 26.7C138.122 26.22 137.988 25.7067 137.988 25.16C137.988 24.48 138.162 23.9067 138.508 23.44C138.868 22.9733 139.368 22.6133 140.008 22.36C140.648 22.1067 141.408 21.98 142.288 21.98H144.968C144.968 21.3667 144.868 20.8533 144.668 20.44C144.482 20.0267 144.202 19.72 143.828 19.52C143.455 19.3067 143.002 19.2 142.468 19.2C141.828 19.2 141.268 19.3667 140.788 19.7C140.308 20.02 140.015 20.4867 139.908 21.1H138.188C138.268 20.38 138.515 19.78 138.928 19.3C139.342 18.8067 139.862 18.4333 140.488 18.18C141.115 17.9133 141.775 17.78 142.468 17.78C143.388 17.78 144.155 17.9533 144.768 18.3C145.395 18.6333 145.862 19.1067 146.168 19.72C146.488 20.32 146.648 21.0267 146.648 21.84V28H145.148L145.048 26.22C144.915 26.5 144.742 26.7667 144.528 27.02C144.328 27.26 144.088 27.4733 143.808 27.66C143.542 27.8333 143.228 27.9733 142.868 28.08C142.508 28.1867 142.102 28.24 141.648 28.24ZM141.908 26.82C142.388 26.82 142.815 26.7267 143.188 26.54C143.575 26.34 143.902 26.0733 144.168 25.74C144.435 25.4067 144.635 25.0333 144.768 24.62C144.902 24.2067 144.968 23.7733 144.968 23.32V23.28H142.428C141.775 23.28 141.248 23.36 140.848 23.52C140.462 23.68 140.182 23.8933 140.008 24.16C139.835 24.4267 139.748 24.7333 139.748 25.08C139.748 25.4267 139.828 25.7333 139.988 26C140.148 26.2667 140.388 26.4733 140.708 26.62C141.042 26.7533 141.442 26.82 141.908 26.82ZM153.288 28.24C152.314 28.24 151.454 28.0133 150.708 27.56C149.974 27.1067 149.401 26.4867 148.988 25.7C148.588 24.9 148.388 23.9933 148.388 22.98C148.388 21.98 148.588 21.0867 148.988 20.3C149.401 19.5133 149.981 18.9 150.728 18.46C151.474 18.0067 152.334 17.78 153.308 17.78C154.121 17.78 154.841 17.9467 155.468 18.28C156.108 18.6133 156.594 19.08 156.928 19.68V13.6H158.608V28H157.088L156.928 26.36C156.714 26.68 156.441 26.9867 156.108 27.28C155.774 27.56 155.374 27.7933 154.908 27.98C154.441 28.1533 153.901 28.24 153.288 28.24ZM153.488 26.78C154.154 26.78 154.741 26.6267 155.248 26.32C155.754 26 156.148 25.56 156.428 25C156.721 24.4267 156.868 23.76 156.868 23C156.868 22.2533 156.721 21.6 156.428 21.04C156.148 20.4667 155.754 20.0267 155.248 19.72C154.741 19.4 154.154 19.24 153.488 19.24C152.834 19.24 152.248 19.4 151.728 19.72C151.221 20.0267 150.821 20.4667 150.528 21.04C150.248 21.6 150.108 22.2533 150.108 23C150.108 23.76 150.248 24.4267 150.528 25C150.821 25.56 151.221 26 151.728 26.32C152.248 26.6267 152.834 26.78 153.488 26.78Z" fill="black"/>
</svg>
