<svg width="226" height="40" viewBox="0 0 226 40" fill="none" xmlns="http://www.w3.org/2000/svg">
<rect x="13" width="200" height="40" rx="12" fill="white"/>
<path d="M50.714 14.7466C50.9875 14.4355 51.473 14.3912 51.798 14.6479C52.123 14.9047 52.1643 15.3652 51.8908 15.6763L42.633 26.2056C42.5942 26.2594 42.5507 26.3122 42.4953 26.356C42.3735 26.452 42.2293 26.5055 42.0822 26.519H41.9181C41.771 26.5055 41.6268 26.452 41.505 26.356C41.4477 26.3107 41.402 26.2567 41.3625 26.2007L32.1095 15.6763C31.8361 15.3652 31.8774 14.9047 32.2023 14.6479C32.5273 14.3912 33.0128 14.4355 33.2863 14.7466L42.0001 24.6577L50.714 14.7466Z" fill="black"/>
<path d="M63.5159 28V14H65.1959V26.66H71.7159V28H63.5159ZM73.7233 28V18.02H75.4033V28H73.7233ZM74.5633 15.84C74.2299 15.84 73.9499 15.7333 73.7233 15.52C73.5099 15.2933 73.4033 15.0133 73.4033 14.68C73.4033 14.3467 73.5099 14.08 73.7233 13.88C73.9499 13.6667 74.2299 13.56 74.5633 13.56C74.8833 13.56 75.1566 13.6667 75.3833 13.88C75.6099 14.08 75.7233 14.3467 75.7233 14.68C75.7233 15.0133 75.6099 15.2933 75.3833 15.52C75.1566 15.7333 74.8833 15.84 74.5633 15.84ZM77.9284 28V18.02H79.4484L79.5484 19.78C79.8684 19.1667 80.3284 18.68 80.9284 18.32C81.5284 17.96 82.2084 17.78 82.9684 17.78C83.7551 17.78 84.4351 17.94 85.0084 18.26C85.5818 18.5667 86.0284 19.04 86.3484 19.68C86.6684 20.32 86.8284 21.1267 86.8284 22.1V28H85.1484V22.28C85.1484 21.2667 84.9218 20.5067 84.4684 20C84.0284 19.48 83.4018 19.22 82.5884 19.22C82.0151 19.22 81.5018 19.36 81.0484 19.64C80.6084 19.9067 80.2551 20.3067 79.9884 20.84C79.7351 21.36 79.6084 22 79.6084 22.76V28H77.9284ZM93.4533 28.24C92.5066 28.24 91.6666 28.0267 90.9333 27.6C90.1999 27.16 89.6199 26.5467 89.1933 25.76C88.7799 24.9733 88.5733 24.0533 88.5733 23C88.5733 21.9467 88.7799 21.0333 89.1933 20.26C89.6066 19.4733 90.1799 18.8667 90.9133 18.44C91.6599 18 92.5199 17.78 93.4933 17.78C94.4666 17.78 95.2999 18 95.9933 18.44C96.6866 18.8667 97.2133 19.4333 97.5733 20.14C97.9466 20.8467 98.1333 21.62 98.1333 22.46C98.1333 22.5933 98.1333 22.7333 98.1333 22.88C98.1333 23.0267 98.1266 23.1933 98.1133 23.38H89.8333V22.08H96.4733C96.4466 21.1733 96.1466 20.4667 95.5733 19.96C95.0133 19.4533 94.3066 19.2 93.4533 19.2C92.8799 19.2 92.3466 19.3267 91.8533 19.58C91.3599 19.8333 90.9599 20.2067 90.6533 20.7C90.3599 21.1933 90.2133 21.8067 90.2133 22.54V23.1C90.2133 23.9267 90.3666 24.62 90.6733 25.18C90.9799 25.7267 91.3799 26.14 91.8733 26.42C92.3666 26.6867 92.8933 26.82 93.4533 26.82C94.1466 26.82 94.7199 26.6667 95.1733 26.36C95.6399 26.04 95.9799 25.6067 96.1933 25.06H97.8533C97.6799 25.66 97.3933 26.2 96.9933 26.68C96.6066 27.16 96.1133 27.54 95.5133 27.82C94.9266 28.1 94.2399 28.24 93.4533 28.24ZM103.28 28.24C102.453 28.24 101.767 28.1 101.22 27.82C100.687 27.54 100.287 27.1667 100.02 26.7C99.7533 26.22 99.62 25.7067 99.62 25.16C99.62 24.48 99.7933 23.9067 100.14 23.44C100.5 22.9733 101 22.6133 101.64 22.36C102.28 22.1067 103.04 21.98 103.92 21.98H106.6C106.6 21.3667 106.5 20.8533 106.3 20.44C106.113 20.0267 105.833 19.72 105.46 19.52C105.087 19.3067 104.633 19.2 104.1 19.2C103.46 19.2 102.9 19.3667 102.42 19.7C101.94 20.02 101.647 20.4867 101.54 21.1H99.82C99.9 20.38 100.147 19.78 100.56 19.3C100.973 18.8067 101.493 18.4333 102.12 18.18C102.747 17.9133 103.407 17.78 104.1 17.78C105.02 17.78 105.787 17.9533 106.4 18.3C107.027 18.6333 107.493 19.1067 107.8 19.72C108.12 20.32 108.28 21.0267 108.28 21.84V28H106.78L106.68 26.22C106.547 26.5 106.373 26.7667 106.16 27.02C105.96 27.26 105.72 27.4733 105.44 27.66C105.173 27.8333 104.86 27.9733 104.5 28.08C104.14 28.1867 103.733 28.24 103.28 28.24ZM103.54 26.82C104.02 26.82 104.447 26.7267 104.82 26.54C105.207 26.34 105.533 26.0733 105.8 25.74C106.067 25.4067 106.267 25.0333 106.4 24.62C106.533 24.2067 106.6 23.7733 106.6 23.32V23.28H104.06C103.407 23.28 102.88 23.36 102.48 23.52C102.093 23.68 101.813 23.8933 101.64 24.16C101.467 24.4267 101.38 24.7333 101.38 25.08C101.38 25.4267 101.46 25.7333 101.62 26C101.78 26.2667 102.02 26.4733 102.34 26.62C102.673 26.7533 103.073 26.82 103.54 26.82ZM110.439 28V18.02H111.959L112.099 19.94C112.313 19.4867 112.593 19.1 112.939 18.78C113.299 18.46 113.719 18.2133 114.199 18.04C114.693 17.8667 115.253 17.78 115.879 17.78V19.54H115.359C114.919 19.54 114.499 19.6 114.099 19.72C113.713 19.8267 113.366 20.0067 113.059 20.26C112.766 20.5133 112.533 20.86 112.359 21.3C112.199 21.7267 112.119 22.2667 112.119 22.92V28H110.439ZM126.817 28.24C125.79 28.24 124.897 28.0533 124.137 27.68C123.377 27.3067 122.79 26.7867 122.377 26.12C121.963 25.4533 121.757 24.68 121.757 23.8H123.517C123.517 24.3467 123.643 24.8533 123.897 25.32C124.15 25.7733 124.517 26.14 124.997 26.42C125.49 26.6867 126.097 26.82 126.817 26.82C127.443 26.82 127.977 26.72 128.417 26.52C128.87 26.3067 129.21 26.02 129.437 25.66C129.677 25.3 129.797 24.8933 129.797 24.44C129.797 23.88 129.677 23.4333 129.437 23.1C129.21 22.7533 128.89 22.4733 128.477 22.26C128.077 22.0467 127.61 21.86 127.077 21.7C126.557 21.54 126.01 21.36 125.437 21.16C124.357 20.7867 123.55 20.3267 123.017 19.78C122.497 19.22 122.237 18.4933 122.237 17.6C122.237 16.84 122.41 16.1733 122.757 15.6C123.117 15.0267 123.623 14.58 124.277 14.26C124.943 13.9267 125.73 13.76 126.637 13.76C127.53 13.76 128.303 13.9267 128.957 14.26C129.623 14.5933 130.143 15.0533 130.517 15.64C130.89 16.2133 131.077 16.88 131.077 17.64H129.317C129.317 17.2533 129.217 16.8733 129.017 16.5C128.817 16.1267 128.51 15.82 128.097 15.58C127.697 15.3267 127.19 15.2 126.577 15.2C126.07 15.1867 125.617 15.2733 125.217 15.46C124.83 15.6333 124.523 15.8867 124.297 16.22C124.083 16.5533 123.977 16.96 123.977 17.44C123.977 17.8933 124.07 18.26 124.257 18.54C124.457 18.82 124.737 19.06 125.097 19.26C125.47 19.4467 125.903 19.62 126.397 19.78C126.89 19.94 127.437 20.12 128.037 20.32C128.717 20.5467 129.317 20.8267 129.837 21.16C130.37 21.48 130.783 21.8933 131.077 22.4C131.383 22.9067 131.537 23.5533 131.537 24.34C131.537 25.0067 131.357 25.64 130.997 26.24C130.65 26.8267 130.13 27.3067 129.437 27.68C128.743 28.0533 127.87 28.24 126.817 28.24ZM137.999 28.24C137.052 28.24 136.199 28.02 135.439 27.58C134.692 27.14 134.099 26.5333 133.659 25.76C133.232 24.9733 133.019 24.06 133.019 23.02C133.019 21.9667 133.232 21.0533 133.659 20.28C134.099 19.4933 134.692 18.88 135.439 18.44C136.199 18 137.052 17.78 137.999 17.78C139.185 17.78 140.179 18.0867 140.979 18.7C141.779 19.3133 142.285 20.14 142.499 21.18H140.779C140.645 20.5533 140.319 20.0733 139.799 19.74C139.279 19.3933 138.672 19.22 137.979 19.22C137.419 19.22 136.892 19.36 136.399 19.64C135.905 19.92 135.505 20.3467 135.199 20.92C134.892 21.48 134.739 22.1733 134.739 23C134.739 23.6267 134.825 24.18 134.999 24.66C135.185 25.1267 135.425 25.5267 135.719 25.86C136.025 26.18 136.372 26.42 136.759 26.58C137.159 26.74 137.565 26.82 137.979 26.82C138.445 26.82 138.872 26.7467 139.259 26.6C139.645 26.44 139.972 26.2133 140.239 25.92C140.505 25.6133 140.685 25.2533 140.779 24.84H142.499C142.285 25.8533 141.779 26.6733 140.979 27.3C140.179 27.9267 139.185 28.24 137.999 28.24ZM147.764 28.24C146.938 28.24 146.251 28.1 145.704 27.82C145.171 27.54 144.771 27.1667 144.504 26.7C144.238 26.22 144.104 25.7067 144.104 25.16C144.104 24.48 144.278 23.9067 144.624 23.44C144.984 22.9733 145.484 22.6133 146.124 22.36C146.764 22.1067 147.524 21.98 148.404 21.98H151.084C151.084 21.3667 150.984 20.8533 150.784 20.44C150.598 20.0267 150.318 19.72 149.944 19.52C149.571 19.3067 149.118 19.2 148.584 19.2C147.944 19.2 147.384 19.3667 146.904 19.7C146.424 20.02 146.131 20.4867 146.024 21.1H144.304C144.384 20.38 144.631 19.78 145.044 19.3C145.458 18.8067 145.978 18.4333 146.604 18.18C147.231 17.9133 147.891 17.78 148.584 17.78C149.504 17.78 150.271 17.9533 150.884 18.3C151.511 18.6333 151.978 19.1067 152.284 19.72C152.604 20.32 152.764 21.0267 152.764 21.84V28H151.264L151.164 26.22C151.031 26.5 150.858 26.7667 150.644 27.02C150.444 27.26 150.204 27.4733 149.924 27.66C149.658 27.8333 149.344 27.9733 148.984 28.08C148.624 28.1867 148.218 28.24 147.764 28.24ZM148.024 26.82C148.504 26.82 148.931 26.7267 149.304 26.54C149.691 26.34 150.018 26.0733 150.284 25.74C150.551 25.4067 150.751 25.0333 150.884 24.62C151.018 24.2067 151.084 23.7733 151.084 23.32V23.28H148.544C147.891 23.28 147.364 23.36 146.964 23.52C146.578 23.68 146.298 23.8933 146.124 24.16C145.951 24.4267 145.864 24.7333 145.864 25.08C145.864 25.4267 145.944 25.7333 146.104 26C146.264 26.2667 146.504 26.4733 146.824 26.62C147.158 26.7533 147.558 26.82 148.024 26.82ZM154.924 28V13.6H156.604V28H154.924ZM163.417 28.24C162.471 28.24 161.631 28.0267 160.897 27.6C160.164 27.16 159.584 26.5467 159.157 25.76C158.744 24.9733 158.537 24.0533 158.537 23C158.537 21.9467 158.744 21.0333 159.157 20.26C159.571 19.4733 160.144 18.8667 160.877 18.44C161.624 18 162.484 17.78 163.457 17.78C164.431 17.78 165.264 18 165.957 18.44C166.651 18.8667 167.177 19.4333 167.537 20.14C167.911 20.8467 168.097 21.62 168.097 22.46C168.097 22.5933 168.097 22.7333 168.097 22.88C168.097 23.0267 168.091 23.1933 168.077 23.38H159.797V22.08H166.437C166.411 21.1733 166.111 20.4667 165.537 19.96C164.977 19.4533 164.271 19.2 163.417 19.2C162.844 19.2 162.311 19.3267 161.817 19.58C161.324 19.8333 160.924 20.2067 160.617 20.7C160.324 21.1933 160.177 21.8067 160.177 22.54V23.1C160.177 23.9267 160.331 24.62 160.637 25.18C160.944 25.7267 161.344 26.14 161.837 26.42C162.331 26.6867 162.857 26.82 163.417 26.82C164.111 26.82 164.684 26.6667 165.137 26.36C165.604 26.04 165.944 25.6067 166.157 25.06H167.817C167.644 25.66 167.357 26.2 166.957 26.68C166.571 27.16 166.077 27.54 165.477 27.82C164.891 28.1 164.204 28.24 163.417 28.24Z" fill="black"/>
</svg>
