<svg width="30" height="30" viewBox="0 0 30 30" fill="none" xmlns="http://www.w3.org/2000/svg">
<path d="M15.1373 19.2374L10.2873 24.0874C9.70009 24.6541 8.91587 24.9708 8.0998 24.9708C7.28372 24.9708 6.4995 24.6541 5.9123 24.0874C5.6243 23.8005 5.39579 23.4596 5.23986 23.0842C5.08394 22.7088 5.00367 22.3064 5.00367 21.8999C5.00367 21.4934 5.08394 21.0909 5.23986 20.7155C5.39579 20.3401 5.6243 19.9992 5.9123 19.7124L10.7623 14.8624C10.9977 14.627 11.1299 14.3078 11.1299 13.9749C11.1299 13.642 10.9977 13.3228 10.7623 13.0874C10.5269 12.852 10.2077 12.7198 9.8748 12.7198C9.54192 12.7198 9.22268 12.852 8.9873 13.0874L4.1373 17.9499C3.16024 19.0134 2.63182 20.4132 2.66239 21.8571C2.69296 23.3009 3.28015 24.6771 4.30134 25.6983C5.32252 26.7195 6.69875 27.3067 8.1426 27.3373C9.58646 27.3679 10.9863 26.8394 12.0498 25.8624L16.9123 21.0124C17.1477 20.777 17.2799 20.4578 17.2799 20.1249C17.2799 19.792 17.1477 19.4728 16.9123 19.2374C16.6769 19.002 16.3577 18.8698 16.0248 18.8698C15.6919 18.8698 15.3727 19.002 15.1373 19.2374ZM25.8623 4.13737C24.8108 3.09238 23.3885 2.50586 21.906 2.50586C20.4236 2.50586 19.0013 3.09238 17.9498 4.13737L13.0873 8.98738C12.9707 9.10392 12.8783 9.24229 12.8152 9.39456C12.7521 9.54684 12.7197 9.71005 12.7197 9.87488C12.7197 10.0397 12.7521 10.2029 12.8152 10.3552C12.8783 10.5075 12.9707 10.6458 13.0873 10.7624C13.2038 10.8789 13.3422 10.9714 13.4945 11.0344C13.6468 11.0975 13.81 11.13 13.9748 11.13C14.1396 11.13 14.3028 11.0975 14.4551 11.0344C14.6074 10.9714 14.7457 10.8789 14.8623 10.7624L19.7123 5.91237C20.2995 5.34566 21.0837 5.02895 21.8998 5.02895C22.7159 5.02895 23.5001 5.34566 24.0873 5.91237C24.3753 6.19923 24.6038 6.54014 24.7597 6.91552C24.9157 7.29091 24.9959 7.69339 24.9959 8.09987C24.9959 8.50636 24.9157 8.90884 24.7597 9.28423C24.6038 9.65961 24.3753 10.0005 24.0873 10.2874L19.2373 15.1374C19.1201 15.2536 19.0271 15.3918 18.9637 15.5442C18.9002 15.6965 18.8675 15.8599 18.8675 16.0249C18.8675 16.1899 18.9002 16.3533 18.9637 16.5056C19.0271 16.6579 19.1201 16.7962 19.2373 16.9124C19.3535 17.0295 19.4918 17.1225 19.6441 17.186C19.7964 17.2495 19.9598 17.2821 20.1248 17.2821C20.2898 17.2821 20.4532 17.2495 20.6055 17.186C20.7578 17.1225 20.8961 17.0295 21.0123 16.9124L25.8623 12.0499C26.9073 10.9984 27.4938 9.57609 27.4938 8.09363C27.4938 6.61116 26.9073 5.1889 25.8623 4.13737ZM11.0373 18.9624C11.1541 19.0782 11.2926 19.1699 11.4449 19.2321C11.5972 19.2943 11.7603 19.3258 11.9248 19.3249C12.0893 19.3258 12.2524 19.2943 12.4047 19.2321C12.557 19.1699 12.6955 19.0782 12.8123 18.9624L18.9623 12.8124C19.1977 12.577 19.3299 12.2578 19.3299 11.9249C19.3299 11.592 19.1977 11.2728 18.9623 11.0374C18.7269 10.802 18.4077 10.6698 18.0748 10.6698C17.7419 10.6698 17.4227 10.802 17.1873 11.0374L11.0373 17.1874C10.9201 17.3036 10.8271 17.4418 10.7637 17.5942C10.7002 17.7465 10.6675 17.9099 10.6675 18.0749C10.6675 18.2399 10.7002 18.4033 10.7637 18.5556C10.8271 18.7079 10.9201 18.8462 11.0373 18.9624Z" fill="#69B5F8"/>
</svg>
