<svg width="226" height="40" viewBox="0 0 226 40" fill="none" xmlns="http://www.w3.org/2000/svg">
<rect x="13" width="200" height="40" rx="12" fill="white"/>
<path d="M50.714 14.7466C50.9875 14.4355 51.473 14.3912 51.798 14.6479C52.123 14.9047 52.1643 15.3652 51.8908 15.6763L42.633 26.2056C42.5942 26.2594 42.5507 26.3122 42.4953 26.356C42.3735 26.452 42.2293 26.5055 42.0822 26.519H41.9181C41.771 26.5055 41.6268 26.452 41.505 26.356C41.4477 26.3107 41.402 26.2567 41.3625 26.2007L32.1095 15.6763C31.8361 15.3652 31.8774 14.9047 32.2023 14.6479C32.5273 14.3912 33.0128 14.4355 33.2863 14.7466L42.0001 24.6577L50.714 14.7466Z" fill="black"/>
<path d="M63.6519 28V14H65.3319V26.66H71.8519V28H63.6519ZM77.7695 28.24C76.8362 28.24 75.9962 28.0267 75.2495 27.6C74.5029 27.1733 73.9095 26.5667 73.4695 25.78C73.0429 24.9933 72.8295 24.0733 72.8295 23.02C72.8295 21.9533 73.0495 21.0267 73.4895 20.24C73.9295 19.4533 74.5229 18.8467 75.2695 18.42C76.0295 17.9933 76.8762 17.78 77.8095 17.78C78.7562 17.78 79.6029 17.9933 80.3495 18.42C81.0962 18.8467 81.6829 19.4533 82.1095 20.24C82.5362 21.0267 82.7495 21.9533 82.7495 23.02C82.7495 24.0733 82.5295 24.9933 82.0895 25.78C81.6629 26.5667 81.0695 27.1733 80.3095 27.6C79.5629 28.0267 78.7162 28.24 77.7695 28.24ZM77.7695 26.8C78.3562 26.8 78.8962 26.66 79.3895 26.38C79.8829 26.1 80.2762 25.68 80.5695 25.12C80.8762 24.5467 81.0295 23.84 81.0295 23C81.0295 22.16 80.8829 21.46 80.5895 20.9C80.2962 20.34 79.9029 19.92 79.4095 19.64C78.9162 19.36 78.3829 19.22 77.8095 19.22C77.2495 19.22 76.7162 19.36 76.2095 19.64C75.7162 19.92 75.3162 20.34 75.0095 20.9C74.7029 21.46 74.5495 22.1667 74.5495 23.02C74.5495 23.8467 74.7029 24.5467 75.0095 25.12C75.3162 25.68 75.7095 26.1 76.1895 26.38C76.6829 26.66 77.2095 26.8 77.7695 26.8ZM84.705 28V18.02H86.225L86.325 19.78C86.645 19.1667 87.105 18.68 87.705 18.32C88.305 17.96 88.985 17.78 89.745 17.78C90.5317 17.78 91.2117 17.94 91.785 18.26C92.3583 18.5667 92.805 19.04 93.125 19.68C93.445 20.32 93.605 21.1267 93.605 22.1V28H91.925V22.28C91.925 21.2667 91.6983 20.5067 91.245 20C90.805 19.48 90.1783 19.22 89.365 19.22C88.7917 19.22 88.2783 19.36 87.825 19.64C87.385 19.9067 87.0317 20.3067 86.765 20.84C86.5117 21.36 86.385 22 86.385 22.76V28H84.705ZM99.7298 32.64C98.8365 32.64 98.0365 32.52 97.3298 32.28C96.6365 32.0533 96.0965 31.7 95.7098 31.22C95.3232 30.74 95.1298 30.1467 95.1298 29.44C95.1298 29.1467 95.1898 28.8267 95.3098 28.48C95.4432 28.1333 95.6632 27.7933 95.9698 27.46C96.2898 27.1267 96.7365 26.8267 97.3098 26.56L98.4498 27.24C97.7698 27.5333 97.3165 27.8667 97.0898 28.24C96.8765 28.6267 96.7698 28.9733 96.7698 29.28C96.7698 29.72 96.8965 30.0867 97.1498 30.38C97.4032 30.6733 97.7565 30.8933 98.2098 31.04C98.6632 31.1867 99.1698 31.26 99.7298 31.26C100.29 31.26 100.777 31.1733 101.19 31C101.603 30.84 101.923 30.6133 102.15 30.32C102.377 30.0267 102.49 29.68 102.49 29.28C102.49 28.84 102.317 28.46 101.97 28.14C101.637 27.8333 100.99 27.6533 100.03 27.6C99.2432 27.5467 98.5832 27.4733 98.0498 27.38C97.5165 27.2867 97.0765 27.18 96.7298 27.06C96.3832 26.9267 96.0898 26.78 95.8498 26.62C95.6232 26.46 95.4165 26.2933 95.2298 26.12V25.66L97.1898 23.74L98.6098 24.26L96.6298 26.06L96.8898 25.38C97.0365 25.4867 97.1765 25.5867 97.3098 25.68C97.4432 25.76 97.6232 25.8333 97.8498 25.9C98.0765 25.9667 98.3898 26.0267 98.7898 26.08C99.2032 26.1333 99.7432 26.1867 100.41 26.24C101.303 26.3067 102.023 26.4667 102.57 26.72C103.13 26.9733 103.53 27.3133 103.77 27.74C104.023 28.1667 104.15 28.66 104.15 29.22C104.15 29.7933 103.99 30.34 103.67 30.86C103.363 31.38 102.883 31.8067 102.23 32.14C101.59 32.4733 100.757 32.64 99.7298 32.64ZM99.7098 24.86C98.8698 24.86 98.1565 24.7067 97.5698 24.4C96.9832 24.08 96.5365 23.6533 96.2298 23.12C95.9232 22.5733 95.7698 21.9733 95.7698 21.32C95.7698 20.6667 95.9232 20.0733 96.2298 19.54C96.5365 19.0067 96.9832 18.58 97.5698 18.26C98.1565 17.94 98.8698 17.78 99.7098 17.78C100.55 17.78 101.263 17.94 101.85 18.26C102.437 18.58 102.883 19.0067 103.19 19.54C103.497 20.0733 103.65 20.6667 103.65 21.32C103.65 21.9733 103.497 22.5733 103.19 23.12C102.883 23.6533 102.437 24.08 101.85 24.4C101.263 24.7067 100.55 24.86 99.7098 24.86ZM99.7098 23.48C100.417 23.48 100.977 23.3 101.39 22.94C101.817 22.5667 102.03 22.0267 102.03 21.32C102.03 20.6267 101.817 20.1 101.39 19.74C100.977 19.3667 100.417 19.18 99.7098 19.18C99.0032 19.18 98.4365 19.3667 98.0098 19.74C97.5832 20.1 97.3698 20.6267 97.3698 21.32C97.3698 22.0267 97.5832 22.5667 98.0098 22.94C98.4365 23.3 99.0032 23.48 99.7098 23.48ZM101.33 19.44L100.83 18.02H104.95V19.28L101.33 19.44ZM110.557 28L115.717 14H117.497L122.637 28H120.857L116.597 16.1L112.317 28H110.557ZM112.917 24.4L113.397 23.04H119.737L120.217 24.4H112.917ZM124.218 28V18.02H125.738L125.838 19.78C126.158 19.1667 126.618 18.68 127.218 18.32C127.818 17.96 128.498 17.78 129.258 17.78C130.045 17.78 130.725 17.94 131.298 18.26C131.872 18.5667 132.318 19.04 132.638 19.68C132.958 20.32 133.118 21.1267 133.118 22.1V28H131.438V22.28C131.438 21.2667 131.212 20.5067 130.758 20C130.318 19.48 129.692 19.22 128.878 19.22C128.305 19.22 127.792 19.36 127.338 19.64C126.898 19.9067 126.545 20.3067 126.278 20.84C126.025 21.36 125.898 22 125.898 22.76V28H124.218ZM139.083 28.24C138.283 28.24 137.57 28.1067 136.943 27.84C136.316 27.56 135.816 27.1733 135.443 26.68C135.07 26.1733 134.836 25.58 134.743 24.9H136.463C136.543 25.2467 136.69 25.5667 136.903 25.86C137.13 26.1533 137.423 26.3867 137.783 26.56C138.156 26.7333 138.596 26.82 139.103 26.82C139.583 26.82 139.97 26.7533 140.263 26.62C140.57 26.4733 140.796 26.2867 140.943 26.06C141.103 25.82 141.183 25.56 141.183 25.28C141.183 24.88 141.083 24.5733 140.883 24.36C140.696 24.1467 140.416 23.98 140.043 23.86C139.67 23.74 139.223 23.6267 138.703 23.52C138.276 23.44 137.85 23.3333 137.423 23.2C137.01 23.0667 136.636 22.9 136.303 22.7C135.97 22.4867 135.703 22.22 135.503 21.9C135.303 21.58 135.203 21.1933 135.203 20.74C135.203 20.1667 135.35 19.66 135.643 19.22C135.936 18.7667 136.35 18.4133 136.883 18.16C137.43 17.9067 138.076 17.78 138.823 17.78C139.876 17.78 140.736 18.04 141.403 18.56C142.083 19.08 142.476 19.8333 142.583 20.82H140.923C140.87 20.3133 140.656 19.92 140.283 19.64C139.923 19.3467 139.43 19.2 138.803 19.2C138.176 19.2 137.703 19.3267 137.383 19.58C137.063 19.8333 136.903 20.1667 136.903 20.58C136.903 20.8333 136.99 21.06 137.163 21.26C137.35 21.46 137.616 21.6333 137.963 21.78C138.323 21.9133 138.756 22.0267 139.263 22.12C139.903 22.2533 140.496 22.42 141.043 22.62C141.59 22.8067 142.036 23.0933 142.383 23.48C142.73 23.8667 142.903 24.42 142.903 25.14C142.916 25.7533 142.763 26.2933 142.443 26.76C142.123 27.2267 141.676 27.5933 141.103 27.86C140.543 28.1133 139.87 28.24 139.083 28.24ZM146.552 28L143.632 18.02H145.312L147.612 26.54L147.232 26.52L149.772 18.02H151.672L154.212 26.52L153.812 26.54L156.112 18.02H157.812L154.892 28H153.172L150.532 19.1H150.932L148.272 28H146.552ZM163.357 28.24C162.411 28.24 161.571 28.0267 160.837 27.6C160.104 27.16 159.524 26.5467 159.097 25.76C158.684 24.9733 158.477 24.0533 158.477 23C158.477 21.9467 158.684 21.0333 159.097 20.26C159.511 19.4733 160.084 18.8667 160.817 18.44C161.564 18 162.424 17.78 163.397 17.78C164.371 17.78 165.204 18 165.897 18.44C166.591 18.8667 167.117 19.4333 167.477 20.14C167.851 20.8467 168.037 21.62 168.037 22.46C168.037 22.5933 168.037 22.7333 168.037 22.88C168.037 23.0267 168.031 23.1933 168.017 23.38H159.737V22.08H166.377C166.351 21.1733 166.051 20.4667 165.477 19.96C164.917 19.4533 164.211 19.2 163.357 19.2C162.784 19.2 162.251 19.3267 161.757 19.58C161.264 19.8333 160.864 20.2067 160.557 20.7C160.264 21.1933 160.117 21.8067 160.117 22.54V23.1C160.117 23.9267 160.271 24.62 160.577 25.18C160.884 25.7267 161.284 26.14 161.777 26.42C162.271 26.6867 162.797 26.82 163.357 26.82C164.051 26.82 164.624 26.6667 165.077 26.36C165.544 26.04 165.884 25.6067 166.097 25.06H167.757C167.584 25.66 167.297 26.2 166.897 26.68C166.511 27.16 166.017 27.54 165.417 27.82C164.831 28.1 164.144 28.24 163.357 28.24ZM169.884 28V18.02H171.404L171.544 19.94C171.757 19.4867 172.037 19.1 172.384 18.78C172.744 18.46 173.164 18.2133 173.644 18.04C174.137 17.8667 174.697 17.78 175.324 17.78V19.54H174.804C174.364 19.54 173.944 19.6 173.544 19.72C173.157 19.8267 172.811 20.0067 172.504 20.26C172.211 20.5133 171.977 20.86 171.804 21.3C171.644 21.7267 171.564 22.2667 171.564 22.92V28H169.884Z" fill="black"/>
</svg>
