<svg width="7" height="32" viewBox="0 0 7 32" fill="none" xmlns="http://www.w3.org/2000/svg">
<g clip-path="url(#clip0_40000388_1994)">
<path d="M6.9576 16C6.9576 16.9222 6.59124 17.8067 5.93911 18.4588C5.28698 19.111 4.40251 19.4773 3.48026 19.4773C2.55802 19.4773 1.67354 19.111 1.02142 18.4588C0.369291 17.8067 0.00292969 16.9222 0.00292969 16C0.00292969 15.0778 0.369291 14.1933 1.02142 13.5412C1.67354 12.889 2.55802 12.5227 3.48026 12.5227C4.40251 12.5227 5.28698 12.889 5.93911 13.5412C6.59124 14.1933 6.9576 15.0778 6.9576 16ZM6.9576 3.47733C6.9576 4.39958 6.59124 5.28405 5.93911 5.93618C5.28698 6.58831 4.40251 6.95467 3.48026 6.95467C2.55802 6.95467 1.67354 6.58831 1.02142 5.93618C0.369291 5.28405 0.00292969 4.39958 0.00292969 3.47733C0.00292969 2.55509 0.369291 1.67061 1.02142 1.01849C1.67354 0.366361 2.55802 0 3.48026 0C4.40251 0 5.28698 0.366361 5.93911 1.01849C6.59124 1.67061 6.9576 2.55509 6.9576 3.47733ZM6.9576 28.5213C6.9576 29.4436 6.59124 30.3281 5.93911 30.9802C5.28698 31.6323 4.40251 31.9987 3.48026 31.9987C2.55802 31.9987 1.67354 31.6323 1.02142 30.9802C0.369291 30.3281 0.00292969 29.4436 0.00292969 28.5213C0.00292969 27.5991 0.369291 26.7146 1.02142 26.0625C1.67354 25.4104 2.55802 25.044 3.48026 25.044C4.40251 25.044 5.28698 25.4104 5.93911 26.0625C6.59124 26.7146 6.9576 27.5991 6.9576 28.5213Z" fill="black"/>
</g>
<defs>
<clipPath id="clip0_40000388_1994">
<rect width="6.67" height="32" fill="white"/>
</clipPath>
</defs>
</svg>
