<svg width="226" height="40" viewBox="0 0 226 40" fill="none" xmlns="http://www.w3.org/2000/svg">
<rect x="13" width="200" height="40" rx="12" fill="white"/>
<path d="M50.7141 14.7466C50.9876 14.4355 51.473 14.3912 51.7981 14.6479C52.123 14.9047 52.1643 15.3652 51.8908 15.6763L42.6369 26.2007C42.5974 26.2565 42.5525 26.3108 42.4953 26.356C42.3736 26.452 42.2293 26.5055 42.0822 26.519H41.9182C41.7711 26.5055 41.6268 26.452 41.5051 26.356C41.4495 26.3121 41.4053 26.2596 41.3664 26.2056L32.1096 15.6763C31.8361 15.3652 31.8773 14.9047 32.2024 14.6479C32.5274 14.3912 33.0128 14.4355 33.2863 14.7466L42.0002 24.6577L50.7141 14.7466Z" fill="black"/>
<path d="M63.6316 28V14H65.5916L70.5916 23.78L75.5716 14H77.5516V28H75.8716V17L71.2316 26.02H69.9716L65.3116 17.02V28H63.6316ZM83.6661 28.24C82.8928 28.24 82.2128 28.0867 81.6261 27.78C81.0528 27.46 80.6061 26.98 80.2861 26.34C79.9794 25.7 79.8261 24.8933 79.8261 23.92V18.02H81.5061V23.74C81.5061 24.7533 81.7194 25.52 82.1461 26.04C82.5861 26.5467 83.2194 26.8 84.0461 26.8C84.6061 26.8 85.1128 26.6667 85.5661 26.4C86.0194 26.12 86.3728 25.72 86.6261 25.2C86.8928 24.6667 87.0261 24.02 87.0261 23.26V18.02H88.7061V28H87.1861L87.0861 26.24C86.7794 26.8533 86.3194 27.34 85.7061 27.7C85.1061 28.06 84.4261 28.24 83.6661 28.24ZM91.0909 28V13.6H92.7709V28H91.0909ZM99.0645 28C98.4645 28 97.9445 27.9067 97.5045 27.72C97.0645 27.5333 96.7245 27.22 96.4845 26.78C96.2579 26.3267 96.1445 25.72 96.1445 24.96V19.44H94.4045V18.02H96.1445L96.3645 15.62H97.8245V18.02H100.745V19.44H97.8245V24.96C97.8245 25.5867 97.9512 26.0133 98.2045 26.24C98.4579 26.4533 98.9045 26.56 99.5445 26.56H100.605V28H99.0645ZM102.678 28V18.02H104.358V28H102.678ZM103.518 15.84C103.185 15.84 102.905 15.7333 102.678 15.52C102.465 15.2933 102.358 15.0133 102.358 14.68C102.358 14.3467 102.465 14.08 102.678 13.88C102.905 13.6667 103.185 13.56 103.518 13.56C103.838 13.56 104.111 13.6667 104.338 13.88C104.565 14.08 104.678 14.3467 104.678 14.68C104.678 15.0133 104.565 15.2933 104.338 15.52C104.111 15.7333 103.838 15.84 103.518 15.84ZM106.883 32.4V18.02H108.403L108.563 19.66C108.776 19.34 109.05 19.04 109.383 18.76C109.716 18.4667 110.116 18.2333 110.583 18.06C111.05 17.8733 111.59 17.78 112.203 17.78C113.176 17.78 114.03 18.0133 114.763 18.48C115.496 18.9333 116.063 19.5533 116.463 20.34C116.876 21.1267 117.083 22.0267 117.083 23.04C117.083 24.04 116.876 24.9333 116.463 25.72C116.063 26.5067 115.49 27.1267 114.743 27.58C114.01 28.02 113.156 28.24 112.183 28.24C111.37 28.24 110.65 28.0733 110.023 27.74C109.396 27.4067 108.91 26.94 108.563 26.34V32.4H106.883ZM112.003 26.78C112.656 26.78 113.236 26.6267 113.743 26.32C114.263 26 114.663 25.56 114.943 25C115.236 24.4267 115.383 23.76 115.383 23C115.383 22.2533 115.236 21.6 114.943 21.04C114.663 20.4667 114.263 20.0267 113.743 19.72C113.236 19.4 112.656 19.24 112.003 19.24C111.336 19.24 110.743 19.4 110.223 19.72C109.716 20.0267 109.316 20.4667 109.023 21.04C108.743 21.6 108.603 22.2533 108.603 23C108.603 23.76 108.743 24.4267 109.023 25C109.316 25.56 109.716 26 110.223 26.32C110.743 26.6267 111.336 26.78 112.003 26.78ZM119.022 28V13.6H120.702V28H119.022ZM127.516 28.24C126.569 28.24 125.729 28.0267 124.996 27.6C124.262 27.16 123.682 26.5467 123.256 25.76C122.842 24.9733 122.636 24.0533 122.636 23C122.636 21.9467 122.842 21.0333 123.256 20.26C123.669 19.4733 124.242 18.8667 124.976 18.44C125.722 18 126.582 17.78 127.556 17.78C128.529 17.78 129.362 18 130.056 18.44C130.749 18.8667 131.276 19.4333 131.636 20.14C132.009 20.8467 132.196 21.62 132.196 22.46C132.196 22.5933 132.196 22.7333 132.196 22.88C132.196 23.0267 132.189 23.1933 132.176 23.38H123.896V22.08H130.536C130.509 21.1733 130.209 20.4667 129.636 19.96C129.076 19.4533 128.369 19.2 127.516 19.2C126.942 19.2 126.409 19.3267 125.916 19.58C125.422 19.8333 125.022 20.2067 124.716 20.7C124.422 21.1933 124.276 21.8067 124.276 22.54V23.1C124.276 23.9267 124.429 24.62 124.736 25.18C125.042 25.7267 125.442 26.14 125.936 26.42C126.429 26.6867 126.956 26.82 127.516 26.82C128.209 26.82 128.782 26.6667 129.236 26.36C129.702 26.04 130.042 25.6067 130.256 25.06H131.916C131.742 25.66 131.456 26.2 131.056 26.68C130.669 27.16 130.176 27.54 129.576 27.82C128.989 28.1 128.302 28.24 127.516 28.24ZM145.155 28.24C143.782 28.24 142.595 27.94 141.595 27.34C140.609 26.7267 139.842 25.88 139.295 24.8C138.762 23.7067 138.495 22.44 138.495 21C138.495 19.56 138.762 18.3 139.295 17.22C139.842 16.1267 140.609 15.28 141.595 14.68C142.595 14.0667 143.782 13.76 145.155 13.76C146.769 13.76 148.075 14.14 149.075 14.9C150.075 15.66 150.715 16.7333 150.995 18.12H149.135C148.922 17.2533 148.489 16.56 147.835 16.04C147.182 15.5067 146.289 15.24 145.155 15.24C144.155 15.24 143.282 15.4733 142.535 15.94C141.802 16.3933 141.229 17.0533 140.815 17.92C140.415 18.7733 140.215 19.8 140.215 21C140.215 22.2 140.415 23.2333 140.815 24.1C141.229 24.9533 141.802 25.6133 142.535 26.08C143.282 26.5333 144.155 26.76 145.155 26.76C146.289 26.76 147.182 26.5067 147.835 26C148.489 25.48 148.922 24.7933 149.135 23.94H150.995C150.715 25.2867 150.075 26.34 149.075 27.1C148.075 27.86 146.769 28.24 145.155 28.24ZM152.91 28V13.6H154.59V19.72C154.924 19.1067 155.39 18.6333 155.99 18.3C156.604 17.9533 157.277 17.78 158.01 17.78C158.77 17.78 159.437 17.94 160.01 18.26C160.584 18.5667 161.024 19.04 161.33 19.68C161.65 20.32 161.81 21.1333 161.81 22.12V28H160.15V22.3C160.15 21.2733 159.937 20.5067 159.51 20C159.084 19.48 158.464 19.22 157.65 19.22C157.077 19.22 156.557 19.36 156.09 19.64C155.624 19.92 155.257 20.32 154.99 20.84C154.724 21.36 154.59 22.0067 154.59 22.78V28H152.91ZM168.495 28.24C167.562 28.24 166.722 28.0267 165.975 27.6C165.229 27.1733 164.635 26.5667 164.195 25.78C163.769 24.9933 163.555 24.0733 163.555 23.02C163.555 21.9533 163.775 21.0267 164.215 20.24C164.655 19.4533 165.249 18.8467 165.995 18.42C166.755 17.9933 167.602 17.78 168.535 17.78C169.482 17.78 170.329 17.9933 171.075 18.42C171.822 18.8467 172.409 19.4533 172.835 20.24C173.262 21.0267 173.475 21.9533 173.475 23.02C173.475 24.0733 173.255 24.9933 172.815 25.78C172.389 26.5667 171.795 27.1733 171.035 27.6C170.289 28.0267 169.442 28.24 168.495 28.24ZM168.495 26.8C169.082 26.8 169.622 26.66 170.115 26.38C170.609 26.1 171.002 25.68 171.295 25.12C171.602 24.5467 171.755 23.84 171.755 23C171.755 22.16 171.609 21.46 171.315 20.9C171.022 20.34 170.629 19.92 170.135 19.64C169.642 19.36 169.109 19.22 168.535 19.22C167.975 19.22 167.442 19.36 166.935 19.64C166.442 19.92 166.042 20.34 165.735 20.9C165.429 21.46 165.275 22.1667 165.275 23.02C165.275 23.8467 165.429 24.5467 165.735 25.12C166.042 25.68 166.435 26.1 166.915 26.38C167.409 26.66 167.935 26.8 168.495 26.8ZM175.611 28V18.02H177.291V28H175.611ZM176.451 15.84C176.117 15.84 175.837 15.7333 175.611 15.52C175.397 15.2933 175.291 15.0133 175.291 14.68C175.291 14.3467 175.397 14.08 175.611 13.88C175.837 13.6667 176.117 13.56 176.451 13.56C176.771 13.56 177.044 13.6667 177.271 13.88C177.497 14.08 177.611 14.3467 177.611 14.68C177.611 15.0133 177.497 15.2933 177.271 15.52C177.044 15.7333 176.771 15.84 176.451 15.84ZM184.376 28.24C183.429 28.24 182.576 28.02 181.816 27.58C181.069 27.14 180.476 26.5333 180.036 25.76C179.609 24.9733 179.396 24.06 179.396 23.02C179.396 21.9667 179.609 21.0533 180.036 20.28C180.476 19.4933 181.069 18.88 181.816 18.44C182.576 18 183.429 17.78 184.376 17.78C185.563 17.78 186.556 18.0867 187.356 18.7C188.156 19.3133 188.663 20.14 188.876 21.18H187.156C187.023 20.5533 186.696 20.0733 186.176 19.74C185.656 19.3933 185.049 19.22 184.356 19.22C183.796 19.22 183.269 19.36 182.776 19.64C182.283 19.92 181.883 20.3467 181.576 20.92C181.269 21.48 181.116 22.1733 181.116 23C181.116 23.6267 181.203 24.18 181.376 24.66C181.563 25.1267 181.803 25.5267 182.096 25.86C182.403 26.18 182.749 26.42 183.136 26.58C183.536 26.74 183.943 26.82 184.356 26.82C184.823 26.82 185.249 26.7467 185.636 26.6C186.023 26.44 186.349 26.2133 186.616 25.92C186.883 25.6133 187.063 25.2533 187.156 24.84H188.876C188.663 25.8533 188.156 26.6733 187.356 27.3C186.556 27.9267 185.563 28.24 184.376 28.24ZM195.302 28.24C194.355 28.24 193.515 28.0267 192.782 27.6C192.048 27.16 191.468 26.5467 191.042 25.76C190.628 24.9733 190.422 24.0533 190.422 23C190.422 21.9467 190.628 21.0333 191.042 20.26C191.455 19.4733 192.028 18.8667 192.762 18.44C193.508 18 194.368 17.78 195.342 17.78C196.315 17.78 197.148 18 197.842 18.44C198.535 18.8667 199.062 19.4333 199.422 20.14C199.795 20.8467 199.982 21.62 199.982 22.46C199.982 22.5933 199.982 22.7333 199.982 22.88C199.982 23.0267 199.975 23.1933 199.962 23.38H191.682V22.08H198.322C198.295 21.1733 197.995 20.4667 197.422 19.96C196.862 19.4533 196.155 19.2 195.302 19.2C194.728 19.2 194.195 19.3267 193.702 19.58C193.208 19.8333 192.808 20.2067 192.502 20.7C192.208 21.1933 192.062 21.8067 192.062 22.54V23.1C192.062 23.9267 192.215 24.62 192.522 25.18C192.828 25.7267 193.228 26.14 193.722 26.42C194.215 26.6867 194.742 26.82 195.302 26.82C195.995 26.82 196.568 26.6667 197.022 26.36C197.488 26.04 197.828 25.6067 198.042 25.06H199.702C199.528 25.66 199.242 26.2 198.842 26.68C198.455 27.16 197.962 27.54 197.362 27.82C196.775 28.1 196.088 28.24 195.302 28.24Z" fill="black"/>
</svg>
