<svg width="20" height="20" viewBox="0 0 20 20" fill="none" xmlns="http://www.w3.org/2000/svg">
<path d="M10.0057 7.98927C12.2239 7.98927 14.0221 6.20081 14.0221 3.99464C14.0221 1.78846 12.2239 0 10.0057 0C7.78747 0 5.98926 1.78846 5.98926 3.99464C5.98926 6.20081 7.78747 7.98927 10.0057 7.98927Z" fill="black"/>
<path d="M19.9529 17.2302C19.5363 15.3436 18.581 13.6167 17.2017 12.2569C16.8669 11.9228 16.5041 11.6176 16.1172 11.3448C14.3554 10.0304 12.2079 9.32858 10.0056 9.34746C7.31267 9.33375 4.72353 10.3796 2.80281 12.2569C1.4235 13.6167 0.468183 15.3436 0.0515591 17.2302C-0.0208564 17.5638 -0.0169447 17.9093 0.0630051 18.2412C0.142955 18.5731 0.296897 18.8829 0.513447 19.1476C0.737714 19.4181 1.02012 19.635 1.33987 19.7825C1.65962 19.93 2.00857 20.0042 2.361 19.9998H17.6502C18.0036 20 18.3526 19.9212 18.6713 19.769C18.99 19.6169 19.2701 19.3954 19.491 19.121C19.7037 18.8593 19.8554 18.5541 19.9353 18.2271C20.0151 17.9002 20.0212 17.5597 19.9529 17.2302Z" fill="black"/>
</svg>
