<svg width="19" height="16" viewBox="0 0 19 16" fill="none" xmlns="http://www.w3.org/2000/svg">
<path d="M18 7.16667H1M1 1.33333C1 1.11232 1.09427 0.900358 1.26206 0.744078C1.42986 0.587797 1.65744 0.5 1.89474 0.5H7.26316L9.5 3H17.1053C17.3426 3 17.5701 3.0878 17.7379 3.24408C17.9057 3.40036 18 3.61232 18 3.83333V14.6667C18 14.8877 17.9057 15.0996 17.7379 15.2559C17.5701 15.4122 17.3426 15.5 17.1053 15.5H1.89474C1.65744 15.5 1.42986 15.4122 1.26206 15.2559C1.09427 15.0996 1 14.8877 1 14.6667V1.33333Z" stroke="black" stroke-linejoin="round"/>
</svg>
