<svg width="86" height="86" viewBox="0 0 86 86" fill="none" xmlns="http://www.w3.org/2000/svg">
<path d="M82.4167 33.8426H7.16675M7.16675 7.36574C7.16675 6.36258 7.58402 5.40051 8.32676 4.69117C9.0695 3.98183 10.0769 3.58333 11.1273 3.58333H34.8904L44.7917 14.9306H78.4562C79.5066 14.9306 80.514 15.3291 81.2567 16.0384C81.9995 16.7477 82.4167 17.7098 82.4167 18.713V67.8843C82.4167 68.8874 81.9995 69.8495 81.2567 70.5588C80.514 71.2682 79.5066 71.6667 78.4562 71.6667H11.1273C10.0769 71.6667 9.0695 71.2682 8.32676 70.5588C7.58402 69.8495 7.16675 68.8874 7.16675 67.8843V7.36574Z" stroke="white" stroke-width="4" stroke-linejoin="round"/>
</svg>
