<svg width="24" height="24" viewBox="0 0 24 24" fill="none" xmlns="http://www.w3.org/2000/svg">
<path d="M23 9.44444H2M2 2.05556C2 1.7756 2.11645 1.50712 2.32372 1.30917C2.531 1.11121 2.81213 1 3.10526 1H9.73684L12.5 4.16667H21.8947C22.1879 4.16667 22.469 4.27788 22.6763 4.47583C22.8836 4.67379 23 4.94227 23 5.22222V18.9444C23 19.2244 22.8836 19.4929 22.6763 19.6908C22.469 19.8888 22.1879 20 21.8947 20H3.10526C2.81213 20 2.531 19.8888 2.32372 19.6908C2.11645 19.4929 2 19.2244 2 18.9444V2.05556Z" stroke="white" stroke-width="2" stroke-linejoin="round"/>
</svg>
