<svg width="226" height="40" viewBox="0 0 226 40" fill="none" xmlns="http://www.w3.org/2000/svg">
<rect x="13" width="200" height="40" rx="12" fill="white"/>
<path d="M50.714 14.7466C50.9875 14.4355 51.473 14.3912 51.798 14.6479C52.123 14.9047 52.1643 15.3652 51.8908 15.6763L42.633 26.2056C42.5942 26.2594 42.5507 26.3122 42.4953 26.356C42.3735 26.452 42.2293 26.5055 42.0822 26.519H41.9181C41.771 26.5055 41.6268 26.452 41.505 26.356C41.4477 26.3107 41.402 26.2567 41.3625 26.2007L32.1095 15.6763C31.8361 15.3652 31.8774 14.9047 32.2023 14.6479C32.5273 14.3912 33.0128 14.4355 33.2863 14.7466L42.0001 24.6577L50.714 14.7466Z" fill="black"/>
<path d="M63.8374 28V14H68.3574C69.4508 14 70.3441 14.1867 71.0374 14.56C71.7308 14.92 72.2441 15.4067 72.5774 16.02C72.9108 16.6333 73.0774 17.3267 73.0774 18.1C73.0774 18.8467 72.9041 19.5333 72.5574 20.16C72.2241 20.7867 71.7041 21.2867 70.9974 21.66C70.2908 22.0333 69.3841 22.22 68.2774 22.22H65.5174V28H63.8374ZM71.2374 28L68.1574 21.74H70.0374L73.2174 28H71.2374ZM65.5174 20.9H68.2374C69.3041 20.9 70.0841 20.64 70.5774 20.12C71.0841 19.6 71.3374 18.9333 71.3374 18.12C71.3374 17.2933 71.0908 16.64 70.5974 16.16C70.1174 15.6667 69.3241 15.42 68.2174 15.42H65.5174V20.9ZM78.239 28.24C77.4123 28.24 76.7257 28.1 76.179 27.82C75.6457 27.54 75.2457 27.1667 74.979 26.7C74.7123 26.22 74.579 25.7067 74.579 25.16C74.579 24.48 74.7523 23.9067 75.099 23.44C75.459 22.9733 75.959 22.6133 76.599 22.36C77.239 22.1067 77.999 21.98 78.879 21.98H81.559C81.559 21.3667 81.459 20.8533 81.259 20.44C81.0723 20.0267 80.7923 19.72 80.419 19.52C80.0457 19.3067 79.5923 19.2 79.059 19.2C78.419 19.2 77.859 19.3667 77.379 19.7C76.899 20.02 76.6057 20.4867 76.499 21.1H74.779C74.859 20.38 75.1057 19.78 75.519 19.3C75.9323 18.8067 76.4523 18.4333 77.079 18.18C77.7057 17.9133 78.3657 17.78 79.059 17.78C79.979 17.78 80.7457 17.9533 81.359 18.3C81.9857 18.6333 82.4523 19.1067 82.759 19.72C83.079 20.32 83.239 21.0267 83.239 21.84V28H81.739L81.639 26.22C81.5057 26.5 81.3323 26.7667 81.119 27.02C80.919 27.26 80.679 27.4733 80.399 27.66C80.1323 27.8333 79.819 27.9733 79.459 28.08C79.099 28.1867 78.6923 28.24 78.239 28.24ZM78.499 26.82C78.979 26.82 79.4057 26.7267 79.779 26.54C80.1657 26.34 80.4923 26.0733 80.759 25.74C81.0257 25.4067 81.2257 25.0333 81.359 24.62C81.4923 24.2067 81.559 23.7733 81.559 23.32V23.28H79.019C78.3657 23.28 77.839 23.36 77.439 23.52C77.0523 23.68 76.7723 23.8933 76.599 24.16C76.4257 24.4267 76.339 24.7333 76.339 25.08C76.339 25.4267 76.419 25.7333 76.579 26C76.739 26.2667 76.979 26.4733 77.299 26.62C77.6323 26.7533 78.0323 26.82 78.499 26.82ZM89.0649 28C88.4649 28 87.9449 27.9067 87.5049 27.72C87.0649 27.5333 86.7249 27.22 86.4849 26.78C86.2583 26.3267 86.1449 25.72 86.1449 24.96V19.44H84.4049V18.02H86.1449L86.3649 15.62H87.8249V18.02H90.7449V19.44H87.8249V24.96C87.8249 25.5867 87.9516 26.0133 88.2049 26.24C88.4583 26.4533 88.9049 26.56 89.5449 26.56H90.6049V28H89.0649ZM92.6784 28V18.02H94.3584V28H92.6784ZM93.5184 15.84C93.185 15.84 92.905 15.7333 92.6784 15.52C92.465 15.2933 92.3584 15.0133 92.3584 14.68C92.3584 14.3467 92.465 14.08 92.6784 13.88C92.905 13.6667 93.185 13.56 93.5184 13.56C93.8384 13.56 94.1117 13.6667 94.3384 13.88C94.565 14.08 94.6784 14.3467 94.6784 14.68C94.6784 15.0133 94.565 15.2933 94.3384 15.52C94.1117 15.7333 93.8384 15.84 93.5184 15.84ZM96.8835 28V18.02H98.4035L98.5035 19.78C98.8235 19.1667 99.2835 18.68 99.8835 18.32C100.484 17.96 101.164 17.78 101.924 17.78C102.71 17.78 103.39 17.94 103.964 18.26C104.537 18.5667 104.984 19.04 105.304 19.68C105.624 20.32 105.784 21.1267 105.784 22.1V28H104.104V22.28C104.104 21.2667 103.877 20.5067 103.424 20C102.984 19.48 102.357 19.22 101.544 19.22C100.97 19.22 100.457 19.36 100.004 19.64C99.5635 19.9067 99.2102 20.3067 98.9435 20.84C98.6902 21.36 98.5635 22 98.5635 22.76V28H96.8835ZM111.908 32.64C111.015 32.64 110.215 32.52 109.508 32.28C108.815 32.0533 108.275 31.7 107.888 31.22C107.502 30.74 107.308 30.1467 107.308 29.44C107.308 29.1467 107.368 28.8267 107.488 28.48C107.622 28.1333 107.842 27.7933 108.148 27.46C108.468 27.1267 108.915 26.8267 109.488 26.56L110.628 27.24C109.948 27.5333 109.495 27.8667 109.268 28.24C109.055 28.6267 108.948 28.9733 108.948 29.28C108.948 29.72 109.075 30.0867 109.328 30.38C109.582 30.6733 109.935 30.8933 110.388 31.04C110.842 31.1867 111.348 31.26 111.908 31.26C112.468 31.26 112.955 31.1733 113.368 31C113.782 30.84 114.102 30.6133 114.328 30.32C114.555 30.0267 114.668 29.68 114.668 29.28C114.668 28.84 114.495 28.46 114.148 28.14C113.815 27.8333 113.168 27.6533 112.208 27.6C111.422 27.5467 110.762 27.4733 110.228 27.38C109.695 27.2867 109.255 27.18 108.908 27.06C108.562 26.9267 108.268 26.78 108.028 26.62C107.802 26.46 107.595 26.2933 107.408 26.12V25.66L109.368 23.74L110.788 24.26L108.808 26.06L109.068 25.38C109.215 25.4867 109.355 25.5867 109.488 25.68C109.622 25.76 109.802 25.8333 110.028 25.9C110.255 25.9667 110.568 26.0267 110.968 26.08C111.382 26.1333 111.922 26.1867 112.588 26.24C113.482 26.3067 114.202 26.4667 114.748 26.72C115.308 26.9733 115.708 27.3133 115.948 27.74C116.202 28.1667 116.328 28.66 116.328 29.22C116.328 29.7933 116.168 30.34 115.848 30.86C115.542 31.38 115.062 31.8067 114.408 32.14C113.768 32.4733 112.935 32.64 111.908 32.64ZM111.888 24.86C111.048 24.86 110.335 24.7067 109.748 24.4C109.162 24.08 108.715 23.6533 108.408 23.12C108.102 22.5733 107.948 21.9733 107.948 21.32C107.948 20.6667 108.102 20.0733 108.408 19.54C108.715 19.0067 109.162 18.58 109.748 18.26C110.335 17.94 111.048 17.78 111.888 17.78C112.728 17.78 113.442 17.94 114.028 18.26C114.615 18.58 115.062 19.0067 115.368 19.54C115.675 20.0733 115.828 20.6667 115.828 21.32C115.828 21.9733 115.675 22.5733 115.368 23.12C115.062 23.6533 114.615 24.08 114.028 24.4C113.442 24.7067 112.728 24.86 111.888 24.86ZM111.888 23.48C112.595 23.48 113.155 23.3 113.568 22.94C113.995 22.5667 114.208 22.0267 114.208 21.32C114.208 20.6267 113.995 20.1 113.568 19.74C113.155 19.3667 112.595 19.18 111.888 19.18C111.182 19.18 110.615 19.3667 110.188 19.74C109.762 20.1 109.548 20.6267 109.548 21.32C109.548 22.0267 109.762 22.5667 110.188 22.94C110.615 23.3 111.182 23.48 111.888 23.48ZM113.508 19.44L113.008 18.02H117.128V19.28L113.508 19.44Z" fill="black"/>
</svg>
