<svg width="48" height="48" viewBox="0 0 48 48" fill="none" xmlns="http://www.w3.org/2000/svg">
<rect x="0.75" y="0.75" width="46.5" height="46.5" rx="9.25" stroke="black" stroke-width="1.5"/>
<path d="M16.3167 26.5166L27.7 33.1499M27.6833 14.8499L16.3167 21.4833M37 12.3333C37 15.0947 34.7614 17.3333 32 17.3333C29.2386 17.3333 27 15.0947 27 12.3333C27 9.57183 29.2386 7.33325 32 7.33325C34.7614 7.33325 37 9.57183 37 12.3333ZM17 23.9999C17 26.7613 14.7614 28.9999 12 28.9999C9.23858 28.9999 7 26.7613 7 23.9999C7 21.2385 9.23858 18.9999 12 18.9999C14.7614 18.9999 17 21.2385 17 23.9999ZM37 35.6666C37 38.428 34.7614 40.6666 32 40.6666C29.2386 40.6666 27 38.428 27 35.6666C27 32.9052 29.2386 30.6666 32 30.6666C34.7614 30.6666 37 32.9052 37 35.6666Z" stroke="#1E1E1E" stroke-width="4" stroke-linecap="round" stroke-linejoin="round"/>
</svg>
