<svg width="226" height="40" viewBox="0 0 226 40" fill="none" xmlns="http://www.w3.org/2000/svg">
<rect x="13" width="200" height="40" rx="12" fill="white"/>
<path d="M50.714 14.7466C50.9875 14.4355 51.473 14.3912 51.798 14.6479C52.123 14.9047 52.1643 15.3652 51.8908 15.6763L42.633 26.2056C42.5942 26.2594 42.5507 26.3122 42.4953 26.356C42.3735 26.452 42.2293 26.5055 42.0822 26.519H41.9181C41.771 26.5055 41.6268 26.452 41.505 26.356C41.4477 26.3107 41.402 26.2567 41.3625 26.2007L32.1095 15.6763C31.8361 15.3652 31.8774 14.9047 32.2023 14.6479C32.5273 14.3912 33.0128 14.4355 33.2863 14.7466L42.0001 24.6577L50.714 14.7466Z" fill="black"/>
<path d="M68.058 28.24C67.0313 28.24 66.138 28.0533 65.378 27.68C64.618 27.3067 64.0313 26.7867 63.618 26.12C63.2046 25.4533 62.998 24.68 62.998 23.8H64.758C64.758 24.3467 64.8846 24.8533 65.138 25.32C65.3913 25.7733 65.758 26.14 66.238 26.42C66.7313 26.6867 67.338 26.82 68.058 26.82C68.6846 26.82 69.218 26.72 69.658 26.52C70.1113 26.3067 70.4513 26.02 70.678 25.66C70.918 25.3 71.038 24.8933 71.038 24.44C71.038 23.88 70.918 23.4333 70.678 23.1C70.4513 22.7533 70.1313 22.4733 69.718 22.26C69.318 22.0467 68.8513 21.86 68.318 21.7C67.798 21.54 67.2513 21.36 66.678 21.16C65.598 20.7867 64.7913 20.3267 64.258 19.78C63.738 19.22 63.478 18.4933 63.478 17.6C63.478 16.84 63.6513 16.1733 63.998 15.6C64.358 15.0267 64.8646 14.58 65.518 14.26C66.1846 13.9267 66.9713 13.76 67.878 13.76C68.7713 13.76 69.5446 13.9267 70.198 14.26C70.8646 14.5933 71.3846 15.0533 71.758 15.64C72.1313 16.2133 72.318 16.88 72.318 17.64H70.558C70.558 17.2533 70.458 16.8733 70.258 16.5C70.058 16.1267 69.7513 15.82 69.338 15.58C68.938 15.3267 68.4313 15.2 67.818 15.2C67.3113 15.1867 66.858 15.2733 66.458 15.46C66.0713 15.6333 65.7646 15.8867 65.538 16.22C65.3246 16.5533 65.218 16.96 65.218 17.44C65.218 17.8933 65.3113 18.26 65.498 18.54C65.698 18.82 65.978 19.06 66.338 19.26C66.7113 19.4467 67.1446 19.62 67.638 19.78C68.1313 19.94 68.678 20.12 69.278 20.32C69.958 20.5467 70.558 20.8267 71.078 21.16C71.6113 21.48 72.0246 21.8933 72.318 22.4C72.6246 22.9067 72.778 23.5533 72.778 24.34C72.778 25.0067 72.598 25.64 72.238 26.24C71.8913 26.8267 71.3713 27.3067 70.678 27.68C69.9846 28.0533 69.1113 28.24 68.058 28.24ZM74.68 28V13.6H76.36V19.72C76.6933 19.1067 77.16 18.6333 77.76 18.3C78.3733 17.9533 79.0467 17.78 79.78 17.78C80.54 17.78 81.2067 17.94 81.78 18.26C82.3533 18.5667 82.7933 19.04 83.1 19.68C83.42 20.32 83.58 21.1333 83.58 22.12V28H81.92V22.3C81.92 21.2733 81.7067 20.5067 81.28 20C80.8533 19.48 80.2333 19.22 79.42 19.22C78.8467 19.22 78.3267 19.36 77.86 19.64C77.3933 19.92 77.0267 20.32 76.76 20.84C76.4933 21.36 76.36 22.0067 76.36 22.78V28H74.68ZM90.2648 28.24C89.3315 28.24 88.4915 28.0267 87.7448 27.6C86.9982 27.1733 86.4048 26.5667 85.9648 25.78C85.5382 24.9933 85.3248 24.0733 85.3248 23.02C85.3248 21.9533 85.5448 21.0267 85.9848 20.24C86.4248 19.4533 87.0182 18.8467 87.7648 18.42C88.5248 17.9933 89.3715 17.78 90.3048 17.78C91.2515 17.78 92.0982 17.9933 92.8448 18.42C93.5915 18.8467 94.1782 19.4533 94.6048 20.24C95.0315 21.0267 95.2448 21.9533 95.2448 23.02C95.2448 24.0733 95.0248 24.9933 94.5848 25.78C94.1582 26.5667 93.5648 27.1733 92.8048 27.6C92.0582 28.0267 91.2115 28.24 90.2648 28.24ZM90.2648 26.8C90.8515 26.8 91.3915 26.66 91.8848 26.38C92.3782 26.1 92.7715 25.68 93.0648 25.12C93.3715 24.5467 93.5248 23.84 93.5248 23C93.5248 22.16 93.3782 21.46 93.0848 20.9C92.7915 20.34 92.3982 19.92 91.9048 19.64C91.4115 19.36 90.8782 19.22 90.3048 19.22C89.7448 19.22 89.2115 19.36 88.7048 19.64C88.2115 19.92 87.8115 20.34 87.5048 20.9C87.1982 21.46 87.0448 22.1667 87.0448 23.02C87.0448 23.8467 87.1982 24.5467 87.5048 25.12C87.8115 25.68 88.2048 26.1 88.6848 26.38C89.1782 26.66 89.7048 26.8 90.2648 26.8ZM97.2003 28V18.02H98.7203L98.8603 19.94C99.0736 19.4867 99.3536 19.1 99.7003 18.78C100.06 18.46 100.48 18.2133 100.96 18.04C101.454 17.8667 102.014 17.78 102.64 17.78V19.54H102.12C101.68 19.54 101.26 19.6 100.86 19.72C100.474 19.8267 100.127 20.0067 99.8203 20.26C99.527 20.5133 99.2936 20.86 99.1203 21.3C98.9603 21.7267 98.8803 22.2667 98.8803 22.92V28H97.2003ZM108.065 28C107.465 28 106.945 27.9067 106.505 27.72C106.065 27.5333 105.725 27.22 105.485 26.78C105.258 26.3267 105.145 25.72 105.145 24.96V19.44H103.405V18.02H105.145L105.365 15.62H106.825V18.02H109.745V19.44H106.825V24.96C106.825 25.5867 106.951 26.0133 107.205 26.24C107.458 26.4533 107.905 26.56 108.545 26.56H109.605V28H108.065ZM115.611 28L120.771 14H122.551L127.691 28H125.911L121.651 16.1L117.371 28H115.611ZM117.971 24.4L118.451 23.04H124.791L125.271 24.4H117.971ZM129.272 28V18.02H130.792L130.892 19.78C131.212 19.1667 131.672 18.68 132.272 18.32C132.872 17.96 133.552 17.78 134.312 17.78C135.099 17.78 135.779 17.94 136.352 18.26C136.926 18.5667 137.372 19.04 137.692 19.68C138.012 20.32 138.172 21.1267 138.172 22.1V28H136.492V22.28C136.492 21.2667 136.266 20.5067 135.812 20C135.372 19.48 134.746 19.22 133.932 19.22C133.359 19.22 132.846 19.36 132.392 19.64C131.952 19.9067 131.599 20.3067 131.332 20.84C131.079 21.36 130.952 22 130.952 22.76V28H129.272ZM144.137 28.24C143.337 28.24 142.624 28.1067 141.997 27.84C141.37 27.56 140.87 27.1733 140.497 26.68C140.124 26.1733 139.89 25.58 139.797 24.9H141.517C141.597 25.2467 141.744 25.5667 141.957 25.86C142.184 26.1533 142.477 26.3867 142.837 26.56C143.21 26.7333 143.65 26.82 144.157 26.82C144.637 26.82 145.024 26.7533 145.317 26.62C145.624 26.4733 145.85 26.2867 145.997 26.06C146.157 25.82 146.237 25.56 146.237 25.28C146.237 24.88 146.137 24.5733 145.937 24.36C145.75 24.1467 145.47 23.98 145.097 23.86C144.724 23.74 144.277 23.6267 143.757 23.52C143.33 23.44 142.904 23.3333 142.477 23.2C142.064 23.0667 141.69 22.9 141.357 22.7C141.024 22.4867 140.757 22.22 140.557 21.9C140.357 21.58 140.257 21.1933 140.257 20.74C140.257 20.1667 140.404 19.66 140.697 19.22C140.99 18.7667 141.404 18.4133 141.937 18.16C142.484 17.9067 143.13 17.78 143.877 17.78C144.93 17.78 145.79 18.04 146.457 18.56C147.137 19.08 147.53 19.8333 147.637 20.82H145.977C145.924 20.3133 145.71 19.92 145.337 19.64C144.977 19.3467 144.484 19.2 143.857 19.2C143.23 19.2 142.757 19.3267 142.437 19.58C142.117 19.8333 141.957 20.1667 141.957 20.58C141.957 20.8333 142.044 21.06 142.217 21.26C142.404 21.46 142.67 21.6333 143.017 21.78C143.377 21.9133 143.81 22.0267 144.317 22.12C144.957 22.2533 145.55 22.42 146.097 22.62C146.644 22.8067 147.09 23.0933 147.437 23.48C147.784 23.8667 147.957 24.42 147.957 25.14C147.97 25.7533 147.817 26.2933 147.497 26.76C147.177 27.2267 146.73 27.5933 146.157 27.86C145.597 28.1133 144.924 28.24 144.137 28.24ZM151.605 28L148.685 18.02H150.365L152.665 26.54L152.285 26.52L154.825 18.02H156.725L159.265 26.52L158.865 26.54L161.165 18.02H162.865L159.945 28H158.225L155.585 19.1H155.985L153.325 28H151.605ZM168.411 28.24C167.464 28.24 166.624 28.0267 165.891 27.6C165.158 27.16 164.578 26.5467 164.151 25.76C163.738 24.9733 163.531 24.0533 163.531 23C163.531 21.9467 163.738 21.0333 164.151 20.26C164.564 19.4733 165.138 18.8667 165.871 18.44C166.618 18 167.478 17.78 168.451 17.78C169.424 17.78 170.258 18 170.951 18.44C171.644 18.8667 172.171 19.4333 172.531 20.14C172.904 20.8467 173.091 21.62 173.091 22.46C173.091 22.5933 173.091 22.7333 173.091 22.88C173.091 23.0267 173.084 23.1933 173.071 23.38H164.791V22.08H171.431C171.404 21.1733 171.104 20.4667 170.531 19.96C169.971 19.4533 169.264 19.2 168.411 19.2C167.838 19.2 167.304 19.3267 166.811 19.58C166.318 19.8333 165.918 20.2067 165.611 20.7C165.318 21.1933 165.171 21.8067 165.171 22.54V23.1C165.171 23.9267 165.324 24.62 165.631 25.18C165.938 25.7267 166.338 26.14 166.831 26.42C167.324 26.6867 167.851 26.82 168.411 26.82C169.104 26.82 169.678 26.6667 170.131 26.36C170.598 26.04 170.938 25.6067 171.151 25.06H172.811C172.638 25.66 172.351 26.2 171.951 26.68C171.564 27.16 171.071 27.54 170.471 27.82C169.884 28.1 169.198 28.24 168.411 28.24ZM174.938 28V18.02H176.458L176.598 19.94C176.811 19.4867 177.091 19.1 177.438 18.78C177.798 18.46 178.218 18.2133 178.698 18.04C179.191 17.8667 179.751 17.78 180.378 17.78V19.54H179.858C179.418 19.54 178.998 19.6 178.598 19.72C178.211 19.8267 177.864 20.0067 177.558 20.26C177.264 20.5133 177.031 20.86 176.858 21.3C176.698 21.7267 176.618 22.2667 176.618 22.92V28H174.938Z" fill="black"/>
</svg>
