<svg
          width="112"
          height="32"
          viewBox="0 0 112 32"
          fill="none"
          xmlns="http://www.w3.org/2000/svg"
        >
          <path
            d="M49.08 13.0496H47.2851C47.2161 12.6661 47.0876 12.3286 46.8996 12.0371C46.7117 11.7456 46.4816 11.4982 46.2093 11.295C45.937 11.0917 45.6321 10.9383 45.2946 10.8347C44.9609 10.7312 44.6062 10.6794 44.2303 10.6794C43.5515 10.6794 42.9436 10.8501 42.4067 11.1914C41.8736 11.5327 41.4517 12.0332 41.1411 12.6929C40.8342 13.3526 40.6808 14.158 40.6808 15.1091C40.6808 16.0679 40.8342 16.8771 41.1411 17.5368C41.4517 18.1964 41.8755 18.695 42.4124 19.0325C42.9494 19.37 43.5534 19.5388 44.2246 19.5388C44.5966 19.5388 44.9494 19.4889 45.2831 19.3892C45.6206 19.2857 45.9255 19.1342 46.1978 18.9347C46.4701 18.7353 46.7002 18.4918 46.8881 18.2041C47.0799 17.9126 47.2122 17.579 47.2851 17.2031L49.08 17.2089C48.9841 17.788 48.7981 18.3211 48.5219 18.8082C48.2496 19.2914 47.8987 19.7094 47.4692 20.0623C47.0435 20.4113 46.5564 20.6817 46.008 20.8734C45.4595 21.0652 44.8612 21.1611 44.2131 21.1611C43.1929 21.1611 42.2839 20.9195 41.4862 20.4362C40.6885 19.9491 40.0595 19.2531 39.5993 18.3479C39.1429 17.4428 38.9147 16.3632 38.9147 15.1091C38.9147 13.8511 39.1448 12.7715 39.605 11.8702C40.0653 10.9651 40.6942 10.271 41.492 9.78771C42.2897 9.30064 43.1967 9.0571 44.2131 9.0571C44.8382 9.0571 45.4212 9.14723 45.9619 9.32749C46.5065 9.50391 46.9955 9.7647 47.4289 10.1099C47.8623 10.4512 48.2209 10.8692 48.5047 11.364C48.7885 11.8549 48.9803 12.4168 49.08 13.0496ZM52.1232 21H50.2363L54.4761 9.21818H56.5299L60.7697 21H58.8828L55.5519 11.3582H55.4599L52.1232 21ZM52.4396 16.3862H58.5607V17.882H52.4396V16.3862ZM71.9806 9.21818V21H70.3468L64.3581 12.3592H64.2488V21H62.4711V9.21818H64.1165L70.1109 17.8705H70.2202V9.21818H71.9806ZM84.808 15.1091C84.808 16.367 84.5779 17.4486 84.1177 18.3537C83.6574 19.255 83.0265 19.9491 82.225 20.4362C81.4272 20.9195 80.5202 21.1611 79.5039 21.1611C78.4837 21.1611 77.5728 20.9195 76.7713 20.4362C75.9735 19.9491 75.3446 19.2531 74.8843 18.3479C74.4241 17.4428 74.194 16.3632 74.194 15.1091C74.194 13.8511 74.4241 12.7715 74.8843 11.8702C75.3446 10.9651 75.9735 10.271 76.7713 9.78771C77.5728 9.30064 78.4837 9.0571 79.5039 9.0571C80.5202 9.0571 81.4272 9.30064 82.225 9.78771C83.0265 10.271 83.6574 10.9651 84.1177 11.8702C84.5779 12.7715 84.808 13.8511 84.808 15.1091ZM83.0476 15.1091C83.0476 14.1503 82.8923 13.343 82.5816 12.6871C82.2748 12.0275 81.8529 11.5289 81.316 11.1914C80.7829 10.8501 80.1789 10.6794 79.5039 10.6794C78.825 10.6794 78.2191 10.8501 77.686 11.1914C77.1529 11.5289 76.731 12.0275 76.4203 12.6871C76.1135 13.343 75.9601 14.1503 75.9601 15.1091C75.9601 16.0679 76.1135 16.8771 76.4203 17.5368C76.731 18.1926 77.1529 18.6912 77.686 19.0325C78.2191 19.37 78.825 19.5388 79.5039 19.5388C80.1789 19.5388 80.7829 19.37 81.316 19.0325C81.8529 18.6912 82.2748 18.1926 82.5816 17.5368C82.8923 16.8771 83.0476 16.0679 83.0476 15.1091ZM87.4687 9.21818L90.7478 18.8139H90.8801L94.1592 9.21818H96.0807L91.8408 21H89.7871L85.5472 9.21818H87.4687ZM97.575 21H95.6881L99.9279 9.21818H101.982L106.222 21H104.335L101.004 11.3582H100.912L97.575 21ZM97.8914 16.3862H104.012V17.882H97.8914V16.3862Z"
            fill="#B3B3B3"
          />
          <rect x="5" y="5" width="20" height="20" rx="3" fill="white" />
          <path
            d="M17.8391 12.1609C21.6724 15.9942 23.5074 20.3717 21.9391 21.9401C20.3724 23.5076 15.9932 21.6717 12.1607 17.8392C8.32822 14.0067 6.49239 9.6284 8.06072 8.06007C9.62739 6.49257 14.0057 8.3284 17.8391 12.1609Z"
            stroke="#151515"
            stroke-width="1.5"
            stroke-linecap="round"
            stroke-linejoin="round"
          />
          <path
            d="M14.7915 15H15.2082M12.1615 12.1608C8.32821 15.9942 6.49237 20.3717 8.06071 21.94C9.62904 23.5083 14.0065 21.6717 17.839 17.8392C21.6715 14.0067 23.5082 9.62832 21.9399 8.05999C20.3715 6.49165 15.994 8.32832 12.1615 12.1608Z"
            stroke="#151515"
            stroke-width="1.5"
            stroke-linecap="round"
            stroke-linejoin="round"
          />
        </svg>