<svg width="86" height="31" viewBox="0 0 86 31" fill="none" xmlns="http://www.w3.org/2000/svg">
<rect width="86" height="31" rx="12" fill="#E7EEF5"/>
<g clip-path="url(#clip0_40000186_1915)">
<path d="M21 25.5C15.4816 25.5 11 21.0184 11 15.5C11 9.9816 15.4816 5.5 21 5.5C26.5184 5.5 31 9.9816 31 15.5C31 21.0184 26.5184 25.5 21 25.5ZM21 24.7248C26.1024 24.7248 30.2504 20.6024 30.2504 15.5C30.2504 10.3976 26.1024 6.2752 21 6.2752C19.7882 6.27394 18.5881 6.51168 17.4683 6.97482C16.3486 7.43797 15.3311 8.11741 14.4743 8.97426C13.6174 9.83112 12.938 10.8486 12.4748 11.9683C12.0117 13.0881 11.7739 14.2882 11.7752 15.5C11.7739 16.7118 12.0117 17.9119 12.4748 19.0317C12.938 20.1514 13.6174 21.1689 14.4743 22.0257C15.3311 22.8826 16.3486 23.562 17.4683 24.0252C18.5881 24.4883 19.7882 24.7261 21 24.7248ZM18.4496 19.1L18.3248 19C17.0304 17.88 15.8048 16.8304 14.6496 15.8L14.3248 15.5L14.6504 15.2C15.9968 14.016 17.4 12.9248 18.3248 12L18.4248 11.9H27V19.1H18.4496ZM18.7504 18.3H26.2V12.7H18.7496C17.8672 13.564 16.6832 14.5024 15.5256 15.5C16.544 16.4024 17.62 17.3216 18.7504 18.3ZM19.4 16.7C18.7416 16.7 18.2 16.1576 18.2 15.5C18.2 14.8424 18.7416 14.3 19.4 14.3C20.0584 14.3 20.6 14.8424 20.6 15.5C20.6 16.1576 20.0584 16.7 19.4 16.7ZM19.4 15.9C19.6256 15.9 19.8 15.7256 19.8 15.5C19.8 15.2744 19.6256 15.1 19.4 15.1C19.3473 15.0992 19.2949 15.1091 19.246 15.1289C19.1972 15.1487 19.1528 15.1782 19.1155 15.2155C19.0782 15.2528 19.0487 15.2972 19.0289 15.346C19.0091 15.3949 18.9992 15.4473 19 15.5C19 15.7256 19.1744 15.9 19.4 15.9Z" fill="black"/>
</g>
<path d="M41.8118 11.1136V9.86364H50.5391V11.1136H46.88V21.5H45.4709V11.1136H41.8118ZM51.6257 21.5V12.7727H52.9212V14.0909H53.0121C53.1712 13.6591 53.459 13.3087 53.8757 13.0398C54.2924 12.7708 54.7621 12.6364 55.2848 12.6364C55.3833 12.6364 55.5064 12.6383 55.6541 12.642C55.8018 12.6458 55.9136 12.6515 55.9893 12.6591V14.0227C55.9439 14.0114 55.8397 13.9943 55.6768 13.9716C55.5178 13.9451 55.3492 13.9318 55.1712 13.9318C54.7469 13.9318 54.3681 14.0208 54.0348 14.1989C53.7053 14.3731 53.4439 14.6155 53.2507 14.9261C53.0613 15.233 52.9666 15.5833 52.9666 15.9773V21.5H51.6257ZM63.0788 17.9318V12.7727H64.4197V21.5H63.0788V20.0227H62.9879C62.7834 20.4659 62.4652 20.8428 62.0334 21.1534C61.6016 21.4602 61.0561 21.6136 60.397 21.6136C59.8516 21.6136 59.3667 21.4943 58.9425 21.2557C58.5182 21.0133 58.1849 20.6496 57.9425 20.1648C57.7 19.6761 57.5788 19.0606 57.5788 18.3182V12.7727H58.9197V18.2273C58.9197 18.8636 59.0978 19.3712 59.4538 19.75C59.8137 20.1288 60.272 20.3182 60.8288 20.3182C61.1622 20.3182 61.5012 20.233 61.8459 20.0625C62.1944 19.892 62.486 19.6307 62.7209 19.2784C62.9595 18.9261 63.0788 18.4773 63.0788 17.9318ZM70.5348 21.6818C69.6939 21.6818 68.9685 21.4962 68.3587 21.125C67.7526 20.75 67.2848 20.2273 66.9553 19.5568C66.6295 18.8826 66.4666 18.0985 66.4666 17.2045C66.4666 16.3106 66.6295 15.5227 66.9553 14.8409C67.2848 14.1553 67.7431 13.6212 68.3303 13.2386C68.9212 12.8523 69.6106 12.6591 70.3984 12.6591C70.853 12.6591 71.3018 12.7348 71.745 12.8864C72.1882 13.0379 72.5916 13.2841 72.9553 13.625C73.3189 13.9621 73.6087 14.4091 73.8246 14.9659C74.0405 15.5227 74.1484 16.2083 74.1484 17.0227V17.5909H67.4212V16.4318H72.7848C72.7848 15.9394 72.6863 15.5 72.4893 15.1136C72.2962 14.7273 72.0196 14.4223 71.6598 14.1989C71.3037 13.9754 70.8833 13.8636 70.3984 13.8636C69.8643 13.8636 69.4022 13.9962 69.0121 14.2614C68.6257 14.5227 68.3284 14.8636 68.12 15.2841C67.9117 15.7045 67.8075 16.1553 67.8075 16.6364V17.4091C67.8075 18.0682 67.9212 18.6269 68.1484 19.0852C68.3795 19.5398 68.6996 19.8864 69.1087 20.125C69.5178 20.3598 69.9931 20.4773 70.5348 20.4773C70.8871 20.4773 71.2053 20.428 71.4893 20.3295C71.7772 20.2273 72.0253 20.0758 72.2337 19.875C72.442 19.6705 72.603 19.4167 72.7166 19.1136L74.0121 19.4773C73.8757 19.9167 73.6465 20.303 73.3246 20.6364C73.0026 20.9659 72.6049 21.2235 72.1314 21.4091C71.6579 21.5909 71.1257 21.6818 70.5348 21.6818Z" fill="black"/>
<defs>
<clipPath id="clip0_40000186_1915">
<rect width="20" height="20" fill="white" transform="matrix(1 0 0 -1 11 25.5)"/>
</clipPath>
</defs>
</svg>
